<svg width="111" height="30" viewBox="0 0 111 30" fill="none" xmlns="http://www.w3.org/2000/svg">
<path d="M36.0667 0.769043C36.3485 0.769216 36.4895 0.974275 36.4896 1.38428V26.6606C36.4896 27.1991 36.5662 27.5841 36.72 27.8149C36.8995 28.0201 37.2588 28.1608 37.7972 28.2378L38.6829 28.354C38.9646 28.4054 39.1057 28.5588 39.1058 28.8149C39.1058 29.0971 38.9516 29.2388 38.6439 29.2388H31.7962C31.4884 29.2388 31.3343 29.0971 31.3343 28.8149C31.3343 28.812 31.3343 28.8091 31.3343 28.8062C30.7954 29.3245 30.2004 29.5845 29.5482 29.5845C28.9328 29.5843 28.4452 29.3412 28.0862 28.854C27.7272 28.341 27.484 27.7379 27.3558 27.0454C27.3301 26.789 27.2143 26.6606 27.0091 26.6606C26.8297 26.6352 26.6504 26.751 26.471 27.0073C25.8555 27.8537 25.2264 28.4942 24.5853 28.9302C23.9441 29.3661 23.1494 29.5845 22.2005 29.5845C21.4335 29.5845 20.7646 29.4147 20.1927 29.0767C20.1078 29.1838 19.956 29.2388 19.7347 29.2388H12.887C12.528 29.2388 12.348 29.0971 12.348 28.8149C12.3481 28.5587 12.5148 28.4053 12.848 28.354L13.5023 28.2769C14.5024 28.1486 14.7074 27.5196 14.1175 26.3911L8.57745 15.8501C8.47496 15.6451 8.35984 15.5426 8.23175 15.5425C8.10351 15.5168 7.97523 15.6068 7.84698 15.812L7.03839 17.0815C6.85901 17.3379 6.73053 17.5813 6.65363 17.812C6.60234 18.0428 6.57747 18.3378 6.57745 18.6968V26.6606C6.57745 27.1993 6.65403 27.5717 6.80792 27.7769C6.9875 27.9819 7.34669 28.1228 7.88507 28.1997L8.92413 28.354C9.20608 28.4053 9.34698 28.5461 9.34698 28.7769C9.34694 29.0846 9.15452 29.2388 8.76984 29.2388H1.7298C1.34508 29.2388 1.15265 29.0971 1.15265 28.8149C1.15279 28.5843 1.31946 28.4309 1.65265 28.354L2.53741 28.1997C3.07589 28.0971 3.42253 27.9563 3.57648 27.7769C3.75596 27.5974 3.84596 27.2381 3.84601 26.6997V4.07764C3.84601 3.53916 3.75593 3.18007 3.57648 3.00049C3.42259 2.82095 3.07603 2.68023 2.53741 2.57764L1.65265 2.42334C1.31925 2.34639 1.15265 2.19225 1.15265 1.96143C1.15275 1.67945 1.34518 1.53857 1.7298 1.53857H8.76984C9.15456 1.53857 9.34698 1.69271 9.34698 2.00049C9.34684 2.23105 9.20599 2.37204 8.92413 2.42334L7.88507 2.57764C7.34656 2.65459 6.98744 2.79533 6.80792 3.00049C6.65411 3.20564 6.57749 3.57738 6.57745 4.11572V14.5034C6.57745 14.7599 6.65404 14.914 6.80792 14.9653C6.9618 15.0166 7.10254 14.9266 7.23077 14.6958L13.5403 4.80811C14.3865 3.50027 14.3099 2.75722 13.3099 2.57764L12.4251 2.42334C12.0918 2.34641 11.9252 2.17973 11.9251 1.92334C11.9251 1.6669 12.1042 1.53862 12.4632 1.53857H19.0032C19.3622 1.53857 19.5422 1.67945 19.5423 1.96143C19.5423 2.24351 19.3756 2.39765 19.0423 2.42334L18.3109 2.50049C17.5159 2.57746 16.8618 2.8082 16.3489 3.19287C15.836 3.57761 15.2586 4.26984 14.6175 5.27002L10.2708 12.0796C10.0144 12.5155 10.0011 12.9389 10.2318 13.3491L17.4651 26.9683C17.6703 27.3785 17.8753 27.6735 18.0804 27.853C18.3112 28.0325 18.5803 28.1484 18.888 28.1997L19.261 28.2612C18.7589 27.6164 18.5072 26.814 18.5071 25.853C18.5071 24.7502 18.8537 23.7114 19.5462 22.7368C20.2387 21.7366 21.1874 20.8385 22.3929 20.0435C23.5983 19.2484 24.9703 18.6069 26.5091 18.1196C26.8424 18.0171 27.009 17.7995 27.0091 17.4663V13.9653C27.0091 12.7342 26.8167 11.8621 26.4319 11.3491C26.0472 10.8105 25.5216 10.5405 24.8548 10.5405C24.2137 10.5406 23.6238 10.8364 23.0853 11.4263C22.5725 11.9905 22.2008 12.952 21.97 14.311C21.8418 15.1318 21.5594 15.7349 21.1234 16.1196C20.713 16.4786 20.2898 16.6577 19.8538 16.6577C19.1357 16.6577 18.7767 16.2987 18.7767 15.5806C18.7767 14.8369 18.9817 14.1062 19.3919 13.3882C19.8279 12.6445 20.3919 11.9771 21.0843 11.3872C21.7768 10.7717 22.5341 10.2844 23.3548 9.92529C24.1754 9.56629 24.9961 9.38722 25.8167 9.38721C28.3559 9.38721 29.6253 10.8615 29.6253 13.811V25.5835C29.6253 26.6607 29.8953 27.1997 30.4339 27.1997C30.7672 27.1995 31.0747 26.9812 31.3568 26.5454C31.6389 26.0837 31.7796 25.314 31.7796 24.2368C31.7797 23.8266 31.9472 23.6216 32.2806 23.6216C32.5881 23.6218 32.7415 23.8401 32.7415 24.2759C32.7415 26.148 32.4083 27.5077 31.7415 28.354C31.7404 28.3554 31.7387 28.3565 31.7376 28.3579C31.7441 28.3566 31.7505 28.3552 31.7571 28.354L32.2962 28.2769C32.8347 28.1999 33.2321 28.0457 33.4886 27.8149C33.7451 27.5841 33.8734 27.1993 33.8734 26.6606V4.6167C33.8734 4.15533 33.7966 3.83439 33.6429 3.65479C33.5146 3.47525 33.2705 3.37184 32.9114 3.34619L32.0267 3.23096C31.7448 3.17966 31.604 3.02618 31.6038 2.77002C31.6038 2.51358 31.7446 2.35943 32.0267 2.30811C32.7448 2.15422 33.3604 1.97423 33.8734 1.76904C34.3862 1.56389 34.8095 1.35896 35.1429 1.15381C35.5533 0.897328 35.8615 0.769043 36.0667 0.769043ZM45.7894 9.38721C48.3285 9.38724 49.5979 10.8616 49.598 13.811V25.5835C49.598 26.6605 49.8672 27.1995 50.4056 27.1997C50.739 27.1997 51.0473 26.9814 51.3294 26.5454C51.6115 26.0837 51.7523 25.314 51.7523 24.2368C51.7523 23.8267 51.9191 23.6217 52.2523 23.6216C52.56 23.6216 52.7142 23.8399 52.7142 24.2759C52.7141 26.148 52.381 27.5077 51.7142 28.354C51.073 29.1746 50.3415 29.5845 49.5208 29.5845C48.9054 29.5844 48.4179 29.3412 48.0589 28.854C47.6998 28.341 47.4567 27.7379 47.3284 27.0454C47.3028 26.789 47.1869 26.6606 46.9818 26.6606C46.8023 26.6351 46.6231 26.7509 46.4437 27.0073C45.8281 27.8537 45.1991 28.4942 44.5579 28.9302C43.9168 29.3662 43.122 29.5844 42.1732 29.5845C41.0959 29.5845 40.2104 29.2513 39.5179 28.5845C38.8255 27.892 38.4798 26.9814 38.4798 25.853C38.4798 24.7503 38.8255 23.7113 39.5179 22.7368C40.2104 21.7365 41.1601 20.8385 42.3655 20.0435C43.5709 19.2484 44.943 18.6069 46.4818 18.1196C46.815 18.0171 46.9816 17.7995 46.9818 17.4663V13.9653C46.9818 12.7343 46.7893 11.8621 46.4046 11.3491C46.0199 10.8105 45.4943 10.5405 44.8275 10.5405C44.1863 10.5405 43.5965 10.8364 43.0579 11.4263C42.5451 11.9905 42.1725 12.9519 41.9417 14.311C41.8135 15.1317 41.532 15.7349 41.096 16.1196C40.6858 16.4786 40.2624 16.6576 39.8265 16.6577C39.1083 16.6577 38.7493 16.2987 38.7493 15.5806C38.7494 14.8369 38.9543 14.1062 39.3646 13.3882C39.8006 12.6444 40.3645 11.9771 41.0569 11.3872C41.7494 10.7717 42.5067 10.2844 43.3275 9.92529C44.1481 9.56632 44.9687 9.38721 45.7894 9.38721ZM56.3079 1.53857C56.9491 1.53857 57.3981 1.82099 57.6546 2.38525L66.7337 22.3521C66.8106 22.5058 66.9007 22.57 67.0032 22.5444C67.1315 22.5188 67.1956 22.4288 67.1956 22.2749V4.84717C67.1956 4.02643 67.0549 3.46159 66.7728 3.15381C66.4907 2.82055 66.1314 2.61554 65.6956 2.53857L65.0032 2.42334C64.6698 2.3464 64.5023 2.19226 64.5023 1.96143C64.5024 1.67954 64.695 1.53867 65.0794 1.53857H70.5814C70.9659 1.53859 71.1584 1.67946 71.1585 1.96143C71.1585 2.24348 70.9918 2.39763 70.6585 2.42334L70.1585 2.50049C69.4917 2.60307 69.0293 2.82046 68.7728 3.15381C68.5163 3.46159 68.388 4.02643 68.388 4.84717V28.354C68.3879 28.8151 68.2987 29.1354 68.1194 29.3149C67.9656 29.4945 67.7597 29.5845 67.5032 29.5845C67.0931 29.5843 66.7472 29.2768 66.4651 28.6616L56.0384 6.03955C55.9615 5.86022 55.8589 5.78345 55.7308 5.80908C55.6284 5.83487 55.5775 5.95001 55.5775 6.15479V25.9302C55.5775 26.6481 55.6924 27.1998 55.9232 27.5845C56.1796 27.9435 56.6287 28.1743 57.2698 28.2769L57.7698 28.354C58.1031 28.3796 58.2697 28.533 58.2698 28.8149C58.2698 29.0971 58.0774 29.2388 57.6927 29.2388H52.1917C51.807 29.2388 51.6146 29.0971 51.6146 28.8149C51.6147 28.533 51.7813 28.3797 52.1146 28.354L52.6146 28.2769C53.2811 28.1743 53.7428 27.9433 53.9993 27.5845C54.2558 27.1998 54.3841 26.6481 54.3841 25.9302V4.07764C54.3841 3.53924 54.2949 3.1801 54.1155 3.00049C53.9617 2.82095 53.5892 2.68023 52.9993 2.57764L52.1146 2.42334C51.7812 2.34639 51.6146 2.19224 51.6146 1.96143C51.6147 1.67945 51.8071 1.53857 52.1917 1.53857H56.3079ZM91.4915 9.38721C92.0044 9.38721 92.5043 9.4514 92.9915 9.57959C93.4788 9.68218 93.9154 9.86119 94.3001 10.1177C94.5308 10.2715 94.6457 10.4766 94.6458 10.7329L94.723 14.9653C94.7229 15.35 94.5688 15.5425 94.261 15.5425C94.0818 15.5424 93.9541 15.4906 93.8773 15.3882C93.8004 15.2601 93.7361 15.1065 93.6849 14.9272C93.172 13.2603 92.6587 12.1056 92.1458 11.4644C91.6329 10.7975 91.0039 10.4644 90.2601 10.4644C89.5934 10.4644 89.0417 10.6952 88.6058 11.1567C88.1699 11.6184 87.9525 12.1958 87.9525 12.8882C87.9525 13.7857 88.2215 14.5681 88.7601 15.2349C89.2987 15.9017 90.2734 16.7223 91.6839 17.6968C92.9663 18.6201 93.9284 19.6205 94.5696 20.6978C95.2363 21.7491 95.5696 22.9032 95.5696 24.1597C95.5696 25.801 95.0439 27.1223 93.9925 28.1226C92.9409 29.0972 91.5556 29.5845 89.8372 29.5845C89.2474 29.5845 88.6192 29.5078 87.9525 29.354C87.2857 29.2258 86.7466 29.0592 86.3362 28.854C86.1054 28.7258 85.9896 28.5075 85.9896 28.1997L85.9622 27.1938C85.8602 27.2628 85.7153 27.3173 85.5247 27.353C84.7296 27.4556 84.0882 27.6615 83.6009 27.9692C83.1393 28.277 82.7285 28.6485 82.3694 29.0845C82.1387 29.3152 81.9462 29.4312 81.7923 29.4312C81.5617 29.431 81.4466 29.2768 81.4466 28.9692V27.1997C81.4466 26.9945 81.369 26.8787 81.2151 26.853C81.087 26.802 80.946 26.8536 80.7923 27.0073C79.8434 27.9562 78.9969 28.6226 78.2532 29.0073C77.5351 29.392 76.7271 29.5845 75.8294 29.5845C75.1882 29.5845 74.5726 29.4437 73.9827 29.1616C73.3928 28.8795 72.9055 28.4305 72.5208 27.8149C72.1361 27.1994 71.9437 26.3788 71.9437 25.353V11.9644C71.9437 11.5028 71.8671 11.182 71.7132 11.0024C71.585 10.8229 71.3408 10.7205 70.9818 10.6948L70.3275 10.6177C69.8918 10.5663 69.6741 10.3997 69.6741 10.1177C69.6742 9.78436 69.9175 9.61774 70.4046 9.61768H73.9827C74.3674 9.61768 74.5599 9.8101 74.5599 10.1948V24.5444C74.5599 25.7241 74.7782 26.5705 75.2142 27.0835C75.6758 27.5708 76.3039 27.8149 77.0989 27.8149C77.894 27.8149 78.5996 27.5967 79.2151 27.1606C79.8305 26.699 80.318 26.0966 80.6771 25.353C81.0618 24.5836 81.2542 23.7497 81.2542 22.8521V11.9644C81.2542 11.5027 81.1767 11.182 81.0228 11.0024C80.8945 10.8231 80.6511 10.7205 80.2923 10.6948L79.638 10.6177C79.2021 10.5664 78.9837 10.3998 78.9837 10.1177C78.9837 9.7843 79.2279 9.61768 79.7151 9.61768H83.2933C83.6778 9.61775 83.8704 9.81018 83.8704 10.1948V25.1216C83.8704 25.5832 83.9346 25.904 84.0628 26.0835C84.2167 26.2374 84.4733 26.3398 84.8323 26.3911L85.64 26.5073C85.7655 26.517 85.8674 26.5408 85.9456 26.5796L85.8743 23.8911C85.8743 23.4553 86.0412 23.237 86.3743 23.2368C86.6564 23.2368 86.8489 23.4419 86.9515 23.8521C87.3875 25.6731 87.914 26.9176 88.5296 27.5845C89.1707 28.251 89.9398 28.5844 90.8372 28.5845C91.581 28.5845 92.1966 28.302 92.6839 27.7378C93.1712 27.1479 93.4153 26.3399 93.4153 25.314C93.4153 24.2882 93.1329 23.3775 92.5687 22.5825C92.0044 21.7875 91.0556 20.9152 89.722 19.9663C88.3885 19.0687 87.4137 18.1715 86.7982 17.2739C86.1826 16.3507 85.8744 15.3501 85.8743 14.2729C85.8743 12.811 86.3875 11.6306 87.4134 10.7329C88.4393 9.83531 89.7988 9.38721 91.4915 9.38721ZM102.942 9.38721C105.481 9.38728 106.75 10.8616 106.75 13.811V25.5835C106.75 26.6606 107.019 27.1995 107.558 27.1997C107.891 27.1997 108.2 26.9814 108.482 26.5454C108.764 26.0837 108.905 25.314 108.905 24.2368C108.905 23.8267 109.071 23.6217 109.405 23.6216C109.712 23.6216 109.867 23.8399 109.867 24.2759C109.866 26.148 109.533 27.5077 108.867 28.354C108.225 29.1747 107.494 29.5845 106.673 29.5845C106.058 29.5844 105.57 29.3412 105.211 28.854C104.852 28.341 104.609 27.7379 104.481 27.0454C104.455 26.789 104.339 26.6606 104.134 26.6606C103.955 26.635 103.776 26.7509 103.596 27.0073C102.98 27.8537 102.351 28.4942 101.71 28.9302C101.069 29.3661 100.274 29.5844 99.3255 29.5845C98.2483 29.5845 97.3627 29.2513 96.6702 28.5845C95.9778 27.892 95.6322 26.9814 95.6321 25.853C95.6321 24.7503 95.9779 23.7114 96.6702 22.7368C97.3627 21.7365 98.3124 20.8385 99.5179 20.0435C100.723 19.2485 102.095 18.6069 103.634 18.1196C103.967 18.0171 104.134 17.7995 104.134 17.4663V13.9653C104.134 12.7343 103.942 11.8621 103.557 11.3491C103.172 10.8105 102.647 10.5406 101.98 10.5405C101.339 10.5405 100.749 10.8364 100.21 11.4263C99.6974 11.9905 99.3249 12.9519 99.0941 14.311C98.9658 15.1317 98.6843 15.7349 98.2484 16.1196C97.838 16.4787 97.4139 16.6577 96.9778 16.6577C96.26 16.6576 95.9007 16.2986 95.9007 15.5806C95.9007 14.8369 96.1066 14.1062 96.5169 13.3882C96.9529 12.6444 97.5168 11.9771 98.2093 11.3872C98.9017 10.7717 99.6582 10.2844 100.479 9.92529C101.3 9.56622 102.121 9.38721 102.942 9.38721ZM27.0091 19.6978C27.0091 19.2104 26.7401 19.0687 26.2015 19.2739C24.6369 19.8382 23.4182 20.6203 22.5462 21.6206C21.6998 22.5952 21.2767 23.7757 21.2767 25.1606C21.2767 26.9302 21.9316 27.8149 23.2396 27.8149C23.9063 27.8149 24.5221 27.5841 25.0862 27.1226C25.6504 26.6353 26.112 25.9937 26.471 25.1987C26.83 24.4037 27.0091 23.5056 27.0091 22.5054V19.6978ZM46.9818 19.6978C46.9818 19.2105 46.7126 19.0688 46.1741 19.2739C44.6096 19.8382 43.3909 20.6203 42.5189 21.6206C41.6725 22.5952 41.2493 23.7756 41.2493 25.1606C41.2494 26.93 41.9035 27.8148 43.2112 27.8149C43.878 27.8149 44.4937 27.5841 45.0579 27.1226C45.6222 26.6352 46.0846 25.9938 46.4437 25.1987C46.8027 24.4037 46.9818 23.5056 46.9818 22.5054V19.6978ZM104.134 19.6978C104.134 19.2105 103.865 19.0689 103.326 19.2739C101.762 19.8382 100.543 20.6204 99.6712 21.6206C98.8248 22.5952 98.4017 23.7756 98.4017 25.1606C98.4017 26.9301 99.0558 27.8148 100.364 27.8149C101.03 27.8149 101.646 27.5841 102.21 27.1226C102.775 26.6352 103.237 25.9938 103.596 25.1987C103.955 24.4037 104.134 23.5055 104.134 22.5054V19.6978Z" fill="white"/>
<path d="M36.0667 0.769043L36.067 0.368291H36.0667V0.769043ZM36.4896 1.38428H36.8903V1.38421L36.4896 1.38428ZM36.72 27.8149L36.3865 28.0372L36.4011 28.059L36.4184 28.0788L36.72 27.8149ZM37.7972 28.2378L37.7405 28.6345L37.745 28.6351L37.7972 28.2378ZM38.6829 28.354L38.7548 27.9598L38.745 27.958L38.7351 27.9567L38.6829 28.354ZM39.1058 28.8149H39.5065V28.8148L39.1058 28.8149ZM31.3343 28.8149L30.9335 28.8148V28.8149H31.3343ZM31.3343 28.8062L31.735 28.8114L31.7476 27.8525L31.0565 28.5173L31.3343 28.8062ZM29.5482 29.5845L29.5481 29.9852H29.5482V29.5845ZM28.0862 28.854L27.7578 29.0839L27.7636 29.0917L28.0862 28.854ZM27.3558 27.0454L26.957 27.0853L26.9587 27.102L26.9617 27.1184L27.3558 27.0454ZM27.0091 26.6606L26.9529 27.0574L26.9808 27.0614H27.0091V26.6606ZM26.471 27.0073L26.7952 27.2431L26.7993 27.2371L26.471 27.0073ZM24.5853 28.9302L24.8106 29.2616L24.8106 29.2616L24.5853 28.9302ZM22.2005 29.5845V29.9852H22.2005L22.2005 29.5845ZM20.1927 29.0767L20.3966 28.7317L20.0956 28.5538L19.8786 28.8278L20.1927 29.0767ZM19.7347 29.2388V29.6395H19.7347L19.7347 29.2388ZM12.348 28.8149L11.9472 28.8147V28.8149H12.348ZM12.848 28.354L12.801 27.956L12.794 27.9568L12.787 27.9579L12.848 28.354ZM13.5023 28.2769L13.5492 28.6749L13.5532 28.6744L13.5023 28.2769ZM14.1175 26.3911L14.4726 26.2055L14.4722 26.2047L14.1175 26.3911ZM8.57745 15.8501L8.21895 16.0294L8.22271 16.0365L8.57745 15.8501ZM8.23175 15.5425L8.15316 15.9354L8.19181 15.9432L8.23123 15.9432L8.23175 15.5425ZM7.84698 15.812L8.18501 16.0273L8.18682 16.0244L7.84698 15.812ZM7.03839 17.0815L7.36673 17.3113L7.37172 17.3042L7.3764 17.2968L7.03839 17.0815ZM6.65363 17.812L6.27344 17.6853L6.2669 17.7049L6.26242 17.7251L6.65363 17.812ZM6.57745 18.6968L6.1767 18.6968V18.6968H6.57745ZM6.80792 27.7769L6.48732 28.0173L6.49643 28.0295L6.50643 28.0409L6.80792 27.7769ZM7.88507 28.1997L7.94394 27.8033L7.94175 27.803L7.88507 28.1997ZM8.92413 28.354L8.99596 27.9595L8.983 27.9576L8.92413 28.354ZM9.34698 28.7769L9.74774 28.7769V28.7769H9.34698ZM1.15265 28.8149L0.751897 28.8147V28.8149H1.15265ZM1.65265 28.354L1.5838 27.9592L1.57309 27.9611L1.5625 27.9635L1.65265 28.354ZM2.53741 28.1997L2.60627 28.5945L2.6124 28.5934L2.53741 28.1997ZM3.57648 27.7769L3.2931 27.4935L3.28227 27.5043L3.2723 27.5159L3.57648 27.7769ZM3.84601 26.6997L4.24676 26.6997V26.6997H3.84601ZM3.57648 3.00049L3.2722 3.26129L3.28217 3.27292L3.293 3.28376L3.57648 3.00049ZM2.53741 2.57764L2.61241 2.18392L2.60626 2.18284L2.53741 2.57764ZM1.65265 2.42334L1.56253 2.81383L1.5731 2.81627L1.5838 2.81813L1.65265 2.42334ZM1.15265 1.96143L0.751897 1.96128V1.96143H1.15265ZM9.34698 2.00049L9.74774 2.00075V2.00049H9.34698ZM8.92413 2.42334L8.98303 2.81996L8.99589 2.81761L8.92413 2.42334ZM7.88507 2.57764L7.94176 2.97436L7.94394 2.97404L7.88507 2.57764ZM6.80792 3.00049L6.50633 2.73659L6.49636 2.74798L6.48728 2.76009L6.80792 3.00049ZM6.57745 4.11572L6.1767 4.1157V4.11572H6.57745ZM6.80792 14.9653L6.68118 15.3455L6.68119 15.3455L6.80792 14.9653ZM7.23077 14.6958L6.89294 14.4802L6.88639 14.4905L6.88046 14.5012L7.23077 14.6958ZM13.5403 4.80811L13.2039 4.5904L13.2025 4.59253L13.5403 4.80811ZM13.3099 2.57764L13.3807 2.18319L13.3787 2.18284L13.3099 2.57764ZM12.4251 2.42334L12.335 2.81383L12.3456 2.81627L12.3563 2.81813L12.4251 2.42334ZM11.9251 1.92334H11.5244V1.92345L11.9251 1.92334ZM12.4632 1.53857V1.13782H12.4631L12.4632 1.53857ZM19.5423 1.96143H19.943V1.96129L19.5423 1.96143ZM19.0423 2.42334L19.0115 2.02361L19.0003 2.0248L19.0423 2.42334ZM18.3109 2.50049L18.3495 2.89939L18.3529 2.89903L18.3109 2.50049ZM16.3489 3.19287L16.1085 2.87227L16.1085 2.87228L16.3489 3.19287ZM14.6175 5.27002L14.2801 5.05375L14.2797 5.0544L14.6175 5.27002ZM10.2708 12.0796L9.93301 11.864L9.92909 11.8701L9.92539 11.8764L10.2708 12.0796ZM10.2318 13.3491L10.5858 13.1611L10.5811 13.1527L10.2318 13.3491ZM17.4651 26.9683L17.8237 26.789L17.8191 26.7803L17.4651 26.9683ZM18.0804 27.853L17.8164 28.1546L17.8252 28.1622L17.8343 28.1694L18.0804 27.853ZM18.888 28.1997L18.8221 28.595L18.8228 28.5951L18.888 28.1997ZM19.261 28.2612L19.1958 28.6566L20.2068 28.8234L19.5772 28.015L19.261 28.2612ZM18.5071 25.853H18.1064V25.853L18.5071 25.853ZM19.5462 22.7368L19.8729 22.969L19.8757 22.9649L19.5462 22.7368ZM22.3929 20.0435L22.1722 19.7089L22.1722 19.7089L22.3929 20.0435ZM26.5091 18.1196L26.3912 17.7366L26.3881 17.7376L26.5091 18.1196ZM27.0091 17.4663L27.4098 17.4665V17.4663H27.0091ZM26.4319 11.3491L26.1058 11.5821L26.1113 11.5896L26.4319 11.3491ZM24.8548 10.5405V10.1398H24.8548L24.8548 10.5405ZM23.0853 11.4263L22.7893 11.1561L22.7887 11.1567L23.0853 11.4263ZM21.97 14.311L21.5749 14.2439L21.5741 14.2492L21.97 14.311ZM21.1234 16.1196L21.3872 16.4212L21.3885 16.4201L21.1234 16.1196ZM19.8538 16.6577V17.0585H19.8539L19.8538 16.6577ZM18.7767 15.5806L18.3759 15.5805V15.5806H18.7767ZM19.3919 13.3882L19.0462 13.1855L19.0439 13.1894L19.3919 13.3882ZM21.0843 11.3872L21.3442 11.6923L21.3505 11.6867L21.0843 11.3872ZM23.3548 9.92529L23.1942 9.55814L23.1942 9.55814L23.3548 9.92529ZM25.8167 9.38721V8.98645H25.8167L25.8167 9.38721ZM29.6253 13.811H30.0261V13.811L29.6253 13.811ZM30.4339 27.1997V27.6005H30.4341L30.4339 27.1997ZM31.3568 26.5454L31.6933 26.7632L31.6987 26.7544L31.3568 26.5454ZM31.7796 24.2368L31.3789 24.2368V24.2368H31.7796ZM32.2806 23.6216L32.2808 23.2208H32.2806V23.6216ZM32.7415 24.2759L33.1423 24.2759V24.2759H32.7415ZM31.7415 28.354L31.4267 28.106L31.4257 28.1073L31.7415 28.354ZM31.7376 28.3579L31.4221 28.1108L30.7506 28.9683L31.8177 28.7506L31.7376 28.3579ZM31.7571 28.354L31.7004 27.9573L31.6928 27.9584L31.6853 27.9597L31.7571 28.354ZM32.2962 28.2769L32.2395 27.8801L32.2394 27.8801L32.2962 28.2769ZM33.4886 27.8149L33.7567 28.1128L33.7567 28.1128L33.4886 27.8149ZM33.6429 3.65479L33.3168 3.88772L33.327 3.902L33.3384 3.91535L33.6429 3.65479ZM32.9114 3.34619L32.8597 3.74359L32.8712 3.74509L32.8829 3.74592L32.9114 3.34619ZM32.0267 3.23096L31.9549 3.62523L31.9649 3.62705L31.9749 3.62835L32.0267 3.23096ZM31.6038 2.77002H31.2031V2.77028L31.6038 2.77002ZM32.0267 2.30811L32.0985 2.70257L32.1106 2.69996L32.0267 2.30811ZM33.8734 1.76904L34.0222 2.14113L33.8734 1.76904ZM35.1429 1.15381L35.3529 1.49513L35.3553 1.49365L35.1429 1.15381ZM45.7894 9.38721L45.7894 8.98645H45.7894V9.38721ZM49.598 13.811H49.9987V13.811L49.598 13.811ZM50.4056 27.1997L50.4054 27.6005H50.4056V27.1997ZM51.3294 26.5454L51.666 26.7632L51.6714 26.7544L51.3294 26.5454ZM51.7523 24.2368L51.3515 24.2368V24.2368H51.7523ZM52.2523 23.6216V23.2208H52.2521L52.2523 23.6216ZM52.7142 24.2759L53.1149 24.2759V24.2759H52.7142ZM51.7142 28.354L51.3994 28.106L51.3984 28.1073L51.7142 28.354ZM49.5208 29.5845L49.5208 29.9852H49.5208V29.5845ZM48.0589 28.854L47.7305 29.0839L47.7363 29.0917L48.0589 28.854ZM47.3284 27.0454L46.9297 27.0853L46.9313 27.1019L46.9344 27.1184L47.3284 27.0454ZM46.9818 26.6606L46.9253 27.0574L46.9534 27.0614H46.9818V26.6606ZM46.4437 27.0073L46.7678 27.2431L46.772 27.2371L46.4437 27.0073ZM44.5579 28.9302L44.7833 29.2616L44.7833 29.2616L44.5579 28.9302ZM42.1732 29.5845V29.9852H42.1732L42.1732 29.5845ZM39.5179 28.5845L39.2344 28.8679L39.2399 28.8731L39.5179 28.5845ZM38.4798 25.853H38.079V25.853L38.4798 25.853ZM39.5179 22.7368L39.8446 22.9689L39.8474 22.9649L39.5179 22.7368ZM42.3655 20.0435L42.1449 19.7089L42.1449 19.7089L42.3655 20.0435ZM46.4818 18.1196L46.3639 17.7366L46.3608 17.7376L46.4818 18.1196ZM46.9818 17.4663L47.3825 17.4665V17.4663H46.9818ZM46.4046 11.3491L46.0784 11.5821L46.084 11.5896L46.4046 11.3491ZM44.8275 10.5405V10.1398H44.8274L44.8275 10.5405ZM43.0579 11.4263L42.762 11.1561L42.7614 11.1567L43.0579 11.4263ZM41.9417 14.311L41.5466 14.2439L41.5458 14.2492L41.9417 14.311ZM41.096 16.1196L41.3599 16.4212L41.3612 16.4201L41.096 16.1196ZM39.8265 16.6577V17.0585H39.8266L39.8265 16.6577ZM38.7493 15.5806L38.3486 15.5805V15.5806H38.7493ZM39.3646 13.3882L39.0188 13.1855L39.0166 13.1894L39.3646 13.3882ZM41.0569 11.3872L41.3169 11.6923L41.3232 11.6867L41.0569 11.3872ZM43.3275 9.92529L43.1668 9.55813L43.1668 9.55814L43.3275 9.92529ZM57.6546 2.38525L57.2898 2.55109L57.2898 2.55114L57.6546 2.38525ZM66.7337 22.3521L66.3689 22.5179L66.372 22.5247L66.3753 22.5313L66.7337 22.3521ZM67.0032 22.5444L66.9246 22.1515L66.9155 22.1533L66.9064 22.1556L67.0032 22.5444ZM66.7728 3.15381L66.4669 3.41271L66.472 3.41876L66.4773 3.42461L66.7728 3.15381ZM65.6956 2.53857L65.7653 2.14391L65.7614 2.14326L65.6956 2.53857ZM65.0032 2.42334L64.9131 2.81383L64.9252 2.81662L64.9374 2.81865L65.0032 2.42334ZM64.5023 1.96143L64.1015 1.96128V1.96143H64.5023ZM65.0794 1.53857V1.13782H65.0793L65.0794 1.53857ZM70.5814 1.53857L70.5814 1.13782H70.5814V1.53857ZM71.1585 1.96143H71.5593V1.96128L71.1585 1.96143ZM70.6585 2.42334L70.6277 2.02378L70.6125 2.02495L70.5974 2.02727L70.6585 2.42334ZM70.1585 2.50049L70.2194 2.89658L70.2196 2.89655L70.1585 2.50049ZM68.7728 3.15381L69.0806 3.41036L69.0856 3.40438L69.0904 3.3982L68.7728 3.15381ZM68.388 28.354L68.7887 28.3541V28.354H68.388ZM68.1194 29.3149L67.8358 29.0318L67.8251 29.0426L67.8152 29.0541L68.1194 29.3149ZM67.5032 29.5845L67.5031 29.9852H67.5032V29.5845ZM66.4651 28.6616L66.8294 28.4946L66.8291 28.4939L66.4651 28.6616ZM56.0384 6.03955L55.67 6.1976L55.6744 6.2073L56.0384 6.03955ZM55.7308 5.80908L55.6522 5.41611L55.6425 5.41806L55.6329 5.42048L55.7308 5.80908ZM55.5775 6.15479L55.1767 6.15468V6.15479H55.5775ZM55.5775 25.9302H55.1767V25.9302L55.5775 25.9302ZM55.9232 27.5845L55.5795 27.7907L55.5878 27.8044L55.5971 27.8174L55.9232 27.5845ZM57.2698 28.2769L57.2065 28.6726L57.2087 28.6729L57.2698 28.2769ZM57.7698 28.354L57.7087 28.7501L57.7238 28.7524L57.7391 28.7536L57.7698 28.354ZM58.2698 28.8149H58.6706V28.8148L58.2698 28.8149ZM51.6146 28.8149L51.2138 28.8148V28.8149H51.6146ZM52.1146 28.354L52.1453 28.7536L52.1606 28.7524L52.1757 28.7501L52.1146 28.354ZM52.6146 28.2769L52.5536 27.8808L52.5535 27.8808L52.6146 28.2769ZM53.9993 27.5845L54.3255 27.8177L54.3328 27.8068L53.9993 27.5845ZM54.3841 25.9302L54.7848 25.9302V25.9302H54.3841ZM54.1155 3.00049L53.8113 3.26129L53.8212 3.27289L53.832 3.2837L54.1155 3.00049ZM52.9993 2.57764L52.9305 2.97243L52.9307 2.97246L52.9993 2.57764ZM52.1146 2.42334L52.0244 2.81382L52.035 2.81627L52.0457 2.81813L52.1146 2.42334ZM51.6146 1.96143L51.2138 1.96128V1.96143H51.6146ZM91.4915 9.38721V8.98645V9.38721ZM92.9915 9.57959L92.8895 9.96715L92.8992 9.96969L92.909 9.97175L92.9915 9.57959ZM94.3001 10.1177L94.5224 9.78424L94.5224 9.78423L94.3001 10.1177ZM94.6458 10.7329L94.245 10.7331L94.2451 10.7402L94.6458 10.7329ZM94.723 14.9653L95.1238 14.9654L95.1236 14.958L94.723 14.9653ZM94.261 15.5425L94.2608 15.9432H94.261V15.5425ZM93.8773 15.3882L93.5336 15.5944L93.5443 15.6121L93.5567 15.6287L93.8773 15.3882ZM93.6849 14.9272L94.0703 14.817L94.0679 14.8094L93.6849 14.9272ZM92.1458 11.4644L91.8281 11.7087L91.8329 11.7147L92.1458 11.4644ZM90.2601 10.4644V10.0636H90.26L90.2601 10.4644ZM88.6058 11.1567L88.3144 10.8816L88.3144 10.8816L88.6058 11.1567ZM87.9525 12.8882H87.5517V12.8882L87.9525 12.8882ZM88.7601 15.2349L88.4483 15.4867L88.4483 15.4867L88.7601 15.2349ZM91.6839 17.6968L91.9181 17.3715L91.9117 17.3671L91.6839 17.6968ZM94.5696 20.6978L94.2251 20.9028L94.2312 20.9124L94.5696 20.6978ZM95.5696 24.1597H95.9704V24.1596L95.5696 24.1597ZM93.9925 28.1226L94.2649 28.4165L94.2687 28.4129L93.9925 28.1226ZM89.8372 29.5845V29.9852V29.5845ZM87.9525 29.354L88.0425 28.9635L88.0354 28.9619L88.0281 28.9605L87.9525 29.354ZM86.3362 28.854L86.1416 29.2043L86.1492 29.2086L86.157 29.2125L86.3362 28.854ZM85.9896 28.1997L86.3905 28.1997L86.3902 28.1888L85.9896 28.1997ZM85.9622 27.1938L86.3628 27.183L86.343 26.4526L85.7377 26.8619L85.9622 27.1938ZM85.5247 27.353L85.576 27.7505L85.5874 27.749L85.5986 27.7469L85.5247 27.353ZM83.6009 27.9692L83.3868 27.6303L83.3786 27.6358L83.6009 27.9692ZM82.3694 29.0845L82.6528 29.3679L82.6665 29.3542L82.6788 29.3392L82.3694 29.0845ZM81.7923 29.4312L81.792 29.8319H81.7923V29.4312ZM81.4466 28.9692H81.0458V28.9693L81.4466 28.9692ZM81.2151 26.853L81.0669 27.2253L81.1068 27.2413L81.1493 27.2483L81.2151 26.853ZM80.7923 27.0073L81.0757 27.2907V27.2907L80.7923 27.0073ZM78.2532 29.0073L78.0691 28.6513L78.064 28.6541L78.2532 29.0073ZM75.8294 29.5845V29.9852V29.5845ZM73.9827 29.1616L73.8098 29.5232L73.9827 29.1616ZM72.5208 27.8149L72.181 28.0273V28.0273L72.5208 27.8149ZM71.9437 25.353H71.5429V25.353L71.9437 25.353ZM71.9437 11.9644H72.3444V11.9643L71.9437 11.9644ZM71.7132 11.0024L71.3871 11.2354L71.3974 11.2498L71.4089 11.2632L71.7132 11.0024ZM70.9818 10.6948L70.9348 11.0928L70.944 11.0939L70.9532 11.0946L70.9818 10.6948ZM70.3275 10.6177L70.3744 10.2197L70.3744 10.2197L70.3275 10.6177ZM69.6741 10.1177L69.2734 10.1176V10.1177H69.6741ZM70.4046 9.61768V9.21692H70.4045L70.4046 9.61768ZM75.2142 27.0835L74.9088 27.343L74.9158 27.3513L74.9232 27.3591L75.2142 27.0835ZM77.0989 27.8149L77.0989 28.2157H77.0989V27.8149ZM79.2151 27.1606L79.4469 27.4878L79.4556 27.4812L79.2151 27.1606ZM80.6771 25.353L80.3186 25.1738L80.3162 25.1788L80.6771 25.353ZM81.2542 22.8521H81.655H81.2542ZM81.2542 11.9644H81.655V11.9643L81.2542 11.9644ZM81.0228 11.0024L80.6968 11.2356L80.7071 11.2499L80.7185 11.2632L81.0228 11.0024ZM80.2923 10.6948L80.2454 11.0928L80.2545 11.0939L80.2637 11.0946L80.2923 10.6948ZM79.638 10.6177L79.6849 10.2197L79.6849 10.2197L79.638 10.6177ZM78.9837 10.1177L78.583 10.1176V10.1177H78.9837ZM83.2933 9.61768L83.2934 9.21692H83.2933V9.61768ZM84.0628 26.0835L83.7367 26.3164L83.756 26.3434L83.7795 26.3669L84.0628 26.0835ZM84.8323 26.3911L84.8894 25.9944L84.889 25.9944L84.8323 26.3911ZM85.64 26.5073L85.5829 26.904L85.596 26.9059L85.6092 26.9069L85.64 26.5073ZM85.9456 26.5796L85.7678 26.9387L86.3639 27.2339L86.3462 26.569L85.9456 26.5796ZM85.8743 23.8911H85.4734L85.4737 23.9017L85.8743 23.8911ZM86.3743 23.2368V22.8361H86.3741L86.3743 23.2368ZM86.9515 23.8521L87.3412 23.7587L87.3402 23.7548L86.9515 23.8521ZM88.5296 27.5845L88.2351 27.8564L88.2408 27.8623L88.5296 27.5845ZM90.8372 28.5845L90.8372 28.9852H90.8372V28.5845ZM92.6839 27.7378L92.9873 27.9998L92.9929 27.993L92.6839 27.7378ZM93.4153 25.314H93.8161V25.3139L93.4153 25.314ZM92.5687 22.5825L92.8955 22.3506L92.8955 22.3506L92.5687 22.5825ZM89.722 19.9663L89.9544 19.6397L89.9458 19.6339L89.722 19.9663ZM86.7982 17.2739L86.4647 17.4962L86.4677 17.5006L86.7982 17.2739ZM85.8743 14.2729H85.4736V14.273L85.8743 14.2729ZM87.4134 10.7329L87.1495 10.4313L87.1495 10.4313L87.4134 10.7329ZM102.942 9.38721L102.942 8.98645H102.942V9.38721ZM106.75 13.811H107.151V13.811L106.75 13.811ZM107.558 27.1997L107.558 27.6005H107.558V27.1997ZM108.482 26.5454L108.818 26.7632L108.824 26.7544L108.482 26.5454ZM108.905 24.2368L108.504 24.2368V24.2368H108.905ZM109.405 23.6216V23.2208H109.404L109.405 23.6216ZM109.867 24.2759L110.267 24.2759V24.2759H109.867ZM108.867 28.354L108.552 28.106L108.551 28.1073L108.867 28.354ZM106.673 29.5845L106.673 29.9852H106.673V29.5845ZM105.211 28.854L104.883 29.0839L104.889 29.0918L105.211 28.854ZM104.481 27.0454L104.082 27.0853L104.084 27.1019L104.087 27.1184L104.481 27.0454ZM104.134 26.6606L104.077 27.0574L104.106 27.0614H104.134V26.6606ZM103.596 27.0073L103.92 27.2431L103.924 27.2371L103.596 27.0073ZM101.71 28.9302L101.936 29.2616L101.936 29.2616L101.71 28.9302ZM99.3255 29.5845V29.9852H99.3255L99.3255 29.5845ZM96.6702 28.5845L96.3868 28.8679L96.3923 28.8731L96.6702 28.5845ZM95.6321 25.853H95.2314V25.853L95.6321 25.853ZM96.6702 22.7368L96.9969 22.9689L96.9997 22.9649L96.6702 22.7368ZM99.5179 20.0435L99.2972 19.7089L99.2972 19.7089L99.5179 20.0435ZM103.634 18.1196L103.516 17.7366L103.513 17.7376L103.634 18.1196ZM104.134 17.4663L104.535 17.4665V17.4663H104.134ZM103.557 11.3491L103.231 11.5821L103.236 11.5895L103.557 11.3491ZM101.98 10.5405L101.98 10.1398H101.98V10.5405ZM100.21 11.4263L99.9143 11.1561L99.9137 11.1567L100.21 11.4263ZM99.0941 14.311L98.6989 14.2439L98.6981 14.2492L99.0941 14.311ZM98.2484 16.1196L98.5123 16.4212L98.5135 16.4201L98.2484 16.1196ZM96.9778 16.6577L96.9778 17.0585H96.9778V16.6577ZM95.9007 15.5806L95.4999 15.5805V15.5806H95.9007ZM96.5169 13.3882L96.1712 13.1855L96.169 13.1894L96.5169 13.3882ZM98.2093 11.3872L98.4692 11.6923L98.4755 11.6867L98.2093 11.3872ZM100.479 9.92529L100.318 9.55814L100.318 9.55815L100.479 9.92529ZM26.2015 19.2739L26.3375 19.651L26.3441 19.6484L26.2015 19.2739ZM22.5462 21.6206L22.2441 21.3573L22.2436 21.3578L22.5462 21.6206ZM21.2767 25.1606H20.8759V25.1607L21.2767 25.1606ZM23.2396 27.8149V28.2157H23.2396L23.2396 27.8149ZM25.0862 27.1226L25.3401 27.4328L25.3482 27.4258L25.0862 27.1226ZM26.471 25.1987L26.8362 25.3637L26.8362 25.3637L26.471 25.1987ZM46.1741 19.2739L46.3101 19.651L46.3168 19.6484L46.1741 19.2739ZM42.5189 21.6206L42.2168 21.3573L42.2163 21.3578L42.5189 21.6206ZM41.2493 25.1606H40.8486V25.1607L41.2493 25.1606ZM43.2112 27.8149L43.2112 28.2157H43.2112V27.8149ZM45.0579 27.1226L45.3118 27.4329L45.3199 27.4259L45.0579 27.1226ZM46.4437 25.1987L46.8089 25.3637L46.8089 25.3637L46.4437 25.1987ZM103.326 19.2739L103.462 19.651L103.469 19.6484L103.326 19.2739ZM99.6712 21.6206L99.3691 21.3573L99.3686 21.3578L99.6712 21.6206ZM98.4017 25.1606H98.0009V25.1607L98.4017 25.1606ZM100.364 27.8149L100.364 28.2157H100.364V27.8149ZM102.21 27.1226L102.464 27.4329L102.472 27.4259L102.21 27.1226ZM103.596 25.1987L103.961 25.3637L103.961 25.3637L103.596 25.1987ZM36.0667 0.769043L36.0665 1.16979C36.0883 1.16981 36.0881 1.17365 36.0767 1.16811C36.0634 1.16165 36.0552 1.15241 36.0535 1.14997C36.0535 1.1499 36.0559 1.15343 36.0596 1.16231C36.0633 1.17128 36.068 1.18504 36.0725 1.20476C36.0817 1.24507 36.0888 1.30353 36.0888 1.38434L36.4896 1.38428L36.8903 1.38421C36.8903 1.14571 36.8515 0.895936 36.7141 0.695975C36.558 0.468992 36.3194 0.368446 36.067 0.368291L36.0667 0.769043ZM36.4896 1.38428H36.0888V26.6606H36.4896H36.8903V1.38428H36.4896ZM36.4896 26.6606H36.0888C36.0888 27.2155 36.1637 27.7027 36.3865 28.0372L36.72 27.8149L37.0535 27.5927C36.9687 27.4654 36.8903 27.1827 36.8903 26.6606H36.4896ZM36.72 27.8149L36.4184 28.0788C36.6994 28.4 37.188 28.5555 37.7405 28.6345L37.7972 28.2378L37.8539 27.8411C37.3297 27.7661 37.0996 27.6401 37.0216 27.551L36.72 27.8149ZM37.7972 28.2378L37.745 28.6351L38.6308 28.7514L38.6829 28.354L38.7351 27.9567L37.8493 27.8404L37.7972 28.2378ZM38.6829 28.354L38.611 28.7483C38.6977 28.7641 38.7118 28.7864 38.7047 28.7787C38.7013 28.7749 38.7 28.7714 38.7004 28.7726C38.7012 28.775 38.705 28.7876 38.705 28.8151L39.1058 28.8149L39.5065 28.8148C39.5064 28.6103 39.4481 28.4033 39.2952 28.2367C39.1471 28.0753 38.9499 27.9953 38.7548 27.9598L38.6829 28.354ZM39.1058 28.8149H38.705C38.705 28.85 38.7001 28.8636 38.7003 28.8632C38.7012 28.8606 38.7067 28.849 38.7192 28.8374C38.731 28.8266 38.7379 28.8262 38.7285 28.8291C38.7175 28.8324 38.6913 28.838 38.6439 28.838V29.2388V29.6395C38.8517 29.6395 39.0821 29.5924 39.2612 29.4279C39.4469 29.2575 39.5065 29.0273 39.5065 28.8149H39.1058ZM38.6439 29.2388V28.838H31.7962V29.2388V29.6395H38.6439V29.2388ZM31.7962 29.2388V28.838C31.7488 28.838 31.7226 28.8324 31.7116 28.8291C31.7022 28.8262 31.709 28.8266 31.7208 28.8374C31.7334 28.849 31.7388 28.8606 31.7398 28.8632C31.74 28.8636 31.735 28.85 31.735 28.8149H31.3343H30.9335C30.9335 29.0273 30.9932 29.2575 31.1788 29.4279C31.358 29.5924 31.5883 29.6395 31.7962 29.6395V29.2388ZM31.3343 28.8149L31.735 28.8151C31.735 28.8135 31.735 28.8121 31.735 28.8111C31.735 28.8098 31.735 28.8098 31.735 28.8092C31.735 28.8083 31.735 28.8095 31.735 28.8114L31.3343 28.8062L30.9336 28.8009C30.9335 28.8057 30.9335 28.8098 30.9335 28.8119C30.9335 28.8127 30.9335 28.8142 30.9335 28.8143C30.9335 28.8149 30.9335 28.8149 30.9335 28.8148L31.3343 28.8149ZM31.3343 28.8062L31.0565 28.5173C30.5802 28.9755 30.0811 29.1837 29.5482 29.1837V29.5845V29.9852C30.3197 29.9852 31.0107 29.6735 31.6121 29.095L31.3343 28.8062ZM29.5482 29.5845L29.5482 29.1837C29.0573 29.1836 28.6906 28.9987 28.4089 28.6163L28.0862 28.854L27.7636 29.0917C28.1998 29.6837 28.8083 29.9851 29.5481 29.9852L29.5482 29.5845ZM28.0862 28.854L28.4146 28.6242C28.0924 28.1639 27.869 27.6159 27.7498 26.9724L27.3558 27.0454L26.9617 27.1184C27.099 27.8599 27.362 28.5181 27.7579 29.0838L28.0862 28.854ZM27.3558 27.0454L27.7545 27.0055C27.7372 26.8319 27.6843 26.6404 27.5474 26.4885C27.3993 26.3242 27.2019 26.2599 27.0091 26.2599V26.6606V27.0614C27.0188 27.0614 27.0126 27.0629 26.9974 27.0568C26.9899 27.0538 26.9815 27.0494 26.973 27.0436C26.9646 27.0377 26.9576 27.0313 26.9521 27.0252C26.941 27.0129 26.9402 27.0065 26.9435 27.0154C26.947 27.0249 26.9531 27.0467 26.957 27.0853L27.3558 27.0454ZM27.0091 26.6606L27.0653 26.2639C26.6492 26.2049 26.3425 26.4921 26.1427 26.7775L26.471 27.0073L26.7993 27.2371C26.872 27.1333 26.9266 27.0849 26.9572 27.0652C26.9812 27.0497 26.9751 27.0606 26.9529 27.0574L27.0091 26.6606ZM26.471 27.0073L26.1469 26.7716C25.5499 27.5925 24.9524 28.1959 24.3599 28.5988L24.5853 28.9302L24.8106 29.2616C25.5005 28.7924 26.1611 28.1148 26.7951 27.243L26.471 27.0073ZM24.5853 28.9302L24.3599 28.5988C23.7987 28.9804 23.0871 29.1837 22.2005 29.1837L22.2005 29.5845L22.2005 29.9852C23.2118 29.9852 24.0895 29.7519 24.8106 29.2616L24.5853 28.9302ZM22.2005 29.5845V29.1837C21.4944 29.1837 20.898 29.028 20.3966 28.7317L20.1927 29.0767L19.9888 29.4217C20.6312 29.8013 21.3727 29.9852 22.2005 29.9852V29.5845ZM20.1927 29.0767L19.8786 28.8278C19.8903 28.813 19.8982 28.814 19.8805 28.8203C19.8595 28.8278 19.8145 28.838 19.7347 28.838L19.7347 29.2388L19.7347 29.6395C20.0069 29.6395 20.3105 29.5733 20.5068 29.3255L20.1927 29.0767ZM19.7347 29.2388V28.838H12.887V29.2388V29.6395H19.7347V29.2388ZM12.887 29.2388V28.838C12.8223 28.838 12.7793 28.8315 12.7531 28.8246C12.7276 28.8179 12.724 28.8125 12.7306 28.8177C12.7391 28.8243 12.7468 28.8348 12.7506 28.8436C12.7533 28.85 12.7487 28.8435 12.7487 28.8149H12.348H11.9472C11.9472 29.0473 12.0262 29.2834 12.2351 29.4477C12.4258 29.5976 12.6656 29.6395 12.887 29.6395V29.2388ZM12.348 28.8149L12.7487 28.8151C12.7487 28.7947 12.752 28.7895 12.7505 28.7931C12.7498 28.7948 12.7486 28.797 12.747 28.7993C12.7454 28.8016 12.7443 28.8026 12.7446 28.8023C12.7473 28.7999 12.7848 28.7692 12.909 28.7501L12.848 28.354L12.787 27.9579C12.5779 27.9901 12.3656 28.0617 12.2015 28.2129C12.0248 28.3758 11.9473 28.5908 11.9472 28.8147L12.348 28.8149ZM12.848 28.354L12.8949 28.752L13.5492 28.6749L13.5023 28.2769L13.4553 27.8789L12.801 27.956L12.848 28.354ZM13.5023 28.2769L13.5532 28.6744C14.1167 28.6021 14.6137 28.365 14.7872 27.8333C14.9431 27.3551 14.7765 26.7868 14.4726 26.2055L14.1175 26.3911L13.7623 26.5768C14.0483 27.1239 14.0742 27.4343 14.0252 27.5848C13.9935 27.6818 13.888 27.8234 13.4513 27.8794L13.5023 28.2769ZM14.1175 26.3911L14.4722 26.2047L8.9322 15.6637L8.57745 15.8501L8.22271 16.0365L13.7628 26.5776L14.1175 26.3911ZM8.57745 15.8501L8.93588 15.6708C8.82074 15.4406 8.60488 15.1422 8.23227 15.1417L8.23175 15.5425L8.23123 15.9432C8.20825 15.9432 8.18676 15.9383 8.16954 15.931C8.15336 15.9242 8.14636 15.9176 8.14777 15.9189C8.14949 15.9204 8.15777 15.9283 8.17112 15.9471C8.18437 15.9659 8.20062 15.9926 8.21903 16.0293L8.57745 15.8501ZM8.23175 15.5425L8.31035 15.1495C7.90879 15.0692 7.64374 15.3811 7.50715 15.5996L7.84698 15.812L8.18682 16.0244C8.21027 15.9869 8.23012 15.9605 8.24564 15.9426C8.26135 15.9246 8.26967 15.9187 8.26935 15.9189C8.26856 15.9194 8.25634 15.9278 8.23299 15.9336C8.20811 15.9399 8.18005 15.9408 8.15316 15.9354L8.23175 15.5425ZM7.84698 15.812L7.50897 15.5967L6.70038 16.8663L7.03839 17.0815L7.3764 17.2968L8.185 16.0273L7.84698 15.812ZM7.03839 17.0815L6.71006 16.8518C6.51472 17.1309 6.36557 17.4089 6.27344 17.6853L6.65363 17.812L7.03381 17.9387C7.09549 17.7537 7.2033 17.5448 7.36673 17.3113L7.03839 17.0815ZM6.65363 17.812L6.26242 17.7251C6.20231 17.9956 6.17671 18.3228 6.1767 18.6968L6.57745 18.6968L6.97821 18.6968C6.97822 18.3528 7.00238 18.09 7.04483 17.8989L6.65363 17.812ZM6.57745 18.6968H6.1767V26.6606H6.57745H6.97821V18.6968H6.57745ZM6.57745 26.6606H6.1767C6.1767 27.2076 6.2486 27.699 6.48732 28.0173L6.80792 27.7769L7.12852 27.5364C7.05947 27.4443 6.97821 27.1909 6.97821 26.6606H6.57745ZM6.80792 27.7769L6.50643 28.0409C6.78747 28.3618 7.27569 28.5175 7.82839 28.5964L7.88507 28.1997L7.94175 27.803C7.41769 27.7281 7.18753 27.602 7.10941 27.5128L6.80792 27.7769ZM7.88507 28.1997L7.82621 28.5961L8.86527 28.7504L8.92413 28.354L8.983 27.9576L7.94394 27.8033L7.88507 28.1997ZM8.92413 28.354L8.85235 28.7483C8.94686 28.7655 8.96531 28.7889 8.95795 28.7816C8.9532 28.7768 8.94842 28.7695 8.94585 28.7628C8.94371 28.7571 8.94623 28.76 8.94623 28.7769H9.34698H9.74774C9.74774 28.5733 9.68221 28.3723 9.52463 28.2147C9.37633 28.0665 9.18335 27.9939 8.99592 27.9597L8.92413 28.354ZM9.34698 28.7769L8.94623 28.7768C8.94623 28.8126 8.94058 28.8256 8.94097 28.8247C8.94237 28.8213 8.94696 28.8146 8.95219 28.8104C8.9572 28.8063 8.91918 28.838 8.76984 28.838V29.2388V29.6395C9.00517 29.6395 9.25571 29.5941 9.45311 29.436C9.66748 29.2644 9.7477 29.0192 9.74774 28.7769L9.34698 28.7769ZM8.76984 29.2388V28.838H1.7298V29.2388V29.6395H8.76984V29.2388ZM1.7298 29.2388V28.838C1.65693 28.838 1.6061 28.8312 1.57277 28.823C1.53975 28.8149 1.53092 28.8073 1.53426 28.8097C1.53995 28.8139 1.54854 28.8233 1.55361 28.8345C1.55767 28.8434 1.5534 28.8402 1.5534 28.8149H1.15265H0.751897C0.751897 29.0572 0.841168 29.295 1.05964 29.4556C1.25518 29.5993 1.49996 29.6395 1.7298 29.6395V29.2388ZM1.15265 28.8149L1.5534 28.8152C1.55341 28.8068 1.55468 28.8089 1.55156 28.8161C1.54838 28.8234 1.54528 28.8253 1.54932 28.8215C1.56187 28.81 1.61204 28.7747 1.7428 28.7445L1.65265 28.354L1.5625 27.9635C1.36006 28.0103 1.1603 28.0901 1.00619 28.2321C0.838977 28.3862 0.752032 28.5897 0.751897 28.8147L1.15265 28.8149ZM1.65265 28.354L1.7215 28.7488L2.60626 28.5945L2.53741 28.1997L2.46857 27.8049L1.5838 27.9592L1.65265 28.354ZM2.53741 28.1997L2.6124 28.5934C2.89677 28.5392 3.14591 28.4722 3.35215 28.3883C3.55348 28.3064 3.74477 28.1962 3.88066 28.0378L3.57648 27.7769L3.2723 27.5159C3.25424 27.537 3.19524 27.5869 3.05015 27.6459C2.90996 27.7029 2.71654 27.7576 2.46243 27.806L2.53741 28.1997ZM3.57648 27.7769L3.85985 28.0602C4.01925 27.9008 4.11231 27.6898 4.16729 27.4702C4.22289 27.248 4.24673 26.9883 4.24676 26.6997L3.84601 26.6997L3.44526 26.6997C3.44523 26.9494 3.42405 27.1386 3.38977 27.2756C3.35487 27.415 3.31319 27.4734 3.2931 27.4935L3.57648 27.7769ZM3.84601 26.6997H4.24676V4.07764H3.84601H3.44526V26.6997H3.84601ZM3.84601 4.07764H4.24676C4.24676 3.78895 4.22291 3.52928 4.16729 3.30714C4.11227 3.08742 4.0192 2.87658 3.85996 2.71722L3.57648 3.00049L3.293 3.28376C3.3132 3.30397 3.35489 3.36247 3.38979 3.50181C3.42407 3.63873 3.44526 3.82784 3.44526 4.07764H3.84601ZM3.57648 3.00049L3.88075 2.73968C3.74486 2.58115 3.55354 2.47088 3.3522 2.38899C3.14597 2.30511 2.89681 2.23814 2.6124 2.18396L2.53741 2.57764L2.46243 2.97131C2.71663 3.01973 2.91006 3.07442 3.05023 3.13143C3.1953 3.19043 3.2542 3.24029 3.2722 3.26129L3.57648 3.00049ZM2.53741 2.57764L2.60626 2.18284L1.7215 2.02855L1.65265 2.42334L1.5838 2.81813L2.46857 2.97243L2.53741 2.57764ZM1.65265 2.42334L1.74277 2.03285C1.61226 2.00273 1.56216 1.96737 1.54962 1.95577C1.54555 1.95201 1.54855 1.95378 1.55166 1.96095C1.55469 1.96796 1.5534 1.96993 1.5534 1.96143H1.15265H0.751897C0.751897 2.18635 0.838581 2.39002 1.00563 2.5444C1.15973 2.68682 1.35964 2.767 1.56253 2.81383L1.65265 2.42334ZM1.15265 1.96143L1.5534 1.96157C1.55341 1.93633 1.55768 1.9333 1.55352 1.94244C1.54834 1.95381 1.53961 1.96333 1.53385 1.96755C1.53045 1.97004 1.5393 1.9624 1.57243 1.9543C1.60587 1.94614 1.65681 1.93933 1.7298 1.93933V1.53857V1.13782C1.50039 1.13782 1.25576 1.17772 1.06021 1.32096C0.841442 1.48121 0.751985 1.71898 0.751897 1.96128L1.15265 1.96143ZM1.7298 1.53857V1.93933H8.76984V1.53857V1.13782H1.7298V1.53857ZM8.76984 1.53857V1.93933C8.91925 1.93933 8.95727 1.971 8.95224 1.96697C8.94699 1.96277 8.94239 1.95597 8.94097 1.95259C8.94058 1.95164 8.94623 1.96462 8.94623 2.00049H9.34698H9.74774C9.74774 1.75813 9.66755 1.5129 9.45313 1.34126C9.2557 1.18322 9.00514 1.13782 8.76984 1.13782V1.53857ZM9.34698 2.00049L8.94623 2.00023C8.94622 2.01703 8.94371 2.01996 8.94582 2.01439C8.94835 2.00772 8.95309 2.0005 8.95779 1.9958C8.96509 1.98849 8.94665 2.01191 8.85237 2.02906L8.92413 2.42334L8.99589 2.81761C9.18347 2.78347 9.37638 2.71074 9.52461 2.56248C9.68202 2.40502 9.74761 2.20413 9.74774 2.00075L9.34698 2.00049ZM8.92413 2.42334L8.86527 2.02693L7.82621 2.18123L7.88507 2.57764L7.94394 2.97404L8.983 2.81974L8.92413 2.42334ZM7.88507 2.57764L7.82838 2.18091C7.27569 2.25989 6.78736 2.41541 6.50633 2.73659L6.80792 3.00049L7.10952 3.26438C7.18752 3.17524 7.41742 3.04928 7.94176 2.97436L7.88507 2.57764ZM6.80792 3.00049L6.48728 2.76009C6.24874 3.07826 6.17674 3.56877 6.1767 4.1157L6.57745 4.11572L6.97821 4.11575C6.97824 3.58599 7.05948 3.33303 7.12856 3.24089L6.80792 3.00049ZM6.57745 4.11572H6.1767V14.5034H6.57745H6.97821V4.11572H6.57745ZM6.57745 14.5034H6.1767C6.1767 14.8141 6.27418 15.2098 6.68118 15.3455L6.80792 14.9653L6.93467 14.5852C6.94519 14.5887 6.95973 14.596 6.97356 14.6083C6.98699 14.6203 6.99271 14.6307 6.99365 14.6325C6.99414 14.6335 6.98993 14.6253 6.98576 14.603C6.9816 14.5807 6.97821 14.5482 6.97821 14.5034H6.57745ZM6.80792 14.9653L6.68119 15.3455C6.8769 15.4108 7.07591 15.3818 7.24451 15.2742C7.39459 15.1784 7.50163 15.0334 7.58108 14.8904L7.23077 14.6958L6.88046 14.5012C6.85773 14.5421 6.83884 14.5687 6.82521 14.5849C6.81146 14.6013 6.8068 14.6027 6.81342 14.5985C6.82142 14.5934 6.8405 14.5837 6.86874 14.58C6.89737 14.5762 6.92088 14.5806 6.93465 14.5851L6.80792 14.9653ZM7.23077 14.6958L7.5686 14.9114L13.8782 5.02368L13.5403 4.80811L13.2025 4.59253L6.89294 14.4802L7.23077 14.6958ZM13.5403 4.80811L13.8768 5.0258C14.3051 4.36391 14.5697 3.74828 14.5161 3.22861C14.487 2.94672 14.3646 2.69974 14.1476 2.51371C13.9403 2.33606 13.6722 2.23555 13.3807 2.18319L13.3099 2.57764L13.239 2.97208C13.4475 3.00952 13.5641 3.06923 13.626 3.12228C13.6781 3.16695 13.7095 3.22114 13.7188 3.31094C13.7419 3.53465 13.6218 3.94446 13.2039 4.59041L13.5403 4.80811ZM13.3099 2.57764L13.3787 2.18284L12.494 2.02855L12.4251 2.42334L12.3563 2.81813L13.241 2.97243L13.3099 2.57764ZM12.4251 2.42334L12.5152 2.03285C12.3906 2.00408 12.3449 1.96868 12.3335 1.95729C12.331 1.95473 12.33 1.95327 12.3298 1.95296C12.3296 1.95267 12.3295 1.95247 12.3292 1.95191C12.329 1.95138 12.3259 1.94347 12.3259 1.92323L11.9251 1.92334L11.5244 1.92345C11.5244 2.14755 11.6013 2.35853 11.7667 2.52399C11.922 2.67927 12.1263 2.76567 12.335 2.81383L12.4251 2.42334ZM11.9251 1.92334H12.3259C12.3259 1.90569 12.3289 1.90946 12.322 1.92427C12.3141 1.94122 12.3018 1.95427 12.2927 1.96075C12.2861 1.96546 12.2914 1.95944 12.3206 1.95247C12.35 1.94547 12.3961 1.93933 12.4632 1.93933L12.4632 1.53857L12.4631 1.13782C12.248 1.13785 12.0147 1.17413 11.8264 1.30887C11.6132 1.46134 11.5244 1.69009 11.5244 1.92334H11.9251ZM12.4632 1.53857V1.93933H19.0032V1.53857V1.13782H12.4632V1.53857ZM19.0032 1.53857V1.93933C19.0681 1.93933 19.1112 1.94582 19.1375 1.95271C19.1632 1.95942 19.1667 1.96482 19.1601 1.95964C19.1515 1.95291 19.1436 1.94233 19.1398 1.93333C19.137 1.92674 19.1415 1.93308 19.1415 1.96156L19.5423 1.96143L19.943 1.96129C19.943 1.72894 19.8638 1.4929 19.6546 1.32887C19.4639 1.17935 19.2242 1.13782 19.0032 1.13782V1.53857ZM19.5423 1.96143H19.1415C19.1415 1.99295 19.1369 2.0055 19.1367 2.00593C19.1366 2.00606 19.1374 2.00418 19.1393 2.00127C19.1413 1.99831 19.1435 1.99585 19.1453 1.9942C19.1531 1.98698 19.1291 2.01471 19.0115 2.02377L19.0423 2.42334L19.0731 2.82291C19.2888 2.80628 19.5148 2.7441 19.6893 2.58286C19.8739 2.41226 19.943 2.18511 19.943 1.96143H19.5423ZM19.0423 2.42334L19.0003 2.0248L18.2688 2.10195L18.3109 2.50049L18.3529 2.89903L19.0843 2.82188L19.0423 2.42334ZM18.3109 2.50049L18.2722 2.1016C17.422 2.18393 16.6931 2.4338 16.1085 2.87227L16.3489 3.19287L16.5894 3.51347C17.0305 3.1826 17.6098 2.971 18.3495 2.89937L18.3109 2.50049ZM16.3489 3.19287L16.1085 2.87228C15.5374 3.30061 14.929 4.04147 14.2801 5.05375L14.6175 5.27002L14.9549 5.48629C15.5883 4.49821 16.1346 3.85461 16.5894 3.51346L16.3489 3.19287ZM14.6175 5.27002L14.2797 5.0544L9.93301 11.864L10.2708 12.0796L10.6086 12.2952L14.9553 5.48564L14.6175 5.27002ZM10.2708 12.0796L9.92539 11.8764C9.60335 12.4239 9.57558 12.9997 9.88242 13.5455L10.2318 13.3491L10.5811 13.1527C10.4266 12.878 10.4254 12.6071 10.6162 12.2828L10.2708 12.0796ZM10.2318 13.3491L9.87782 13.5371L17.1112 27.1562L17.4651 26.9683L17.8191 26.7803L10.5857 13.1611L10.2318 13.3491ZM17.4651 26.9683L17.1067 27.1475C17.3213 27.5767 17.5542 27.9251 17.8164 28.1546L18.0804 27.853L18.3443 27.5515C18.1963 27.4219 18.0192 27.1803 17.8236 26.789L17.4651 26.9683ZM18.0804 27.853L17.8343 28.1694C18.1208 28.3922 18.4528 28.5334 18.8221 28.595L18.888 28.1997L18.9539 27.8044C18.7078 27.7634 18.5015 27.6728 18.3264 27.5367L18.0804 27.853ZM18.888 28.1997L18.8228 28.5951L19.1958 28.6566L19.261 28.2612L19.3263 27.8658L18.9532 27.8043L18.888 28.1997ZM19.261 28.2612L19.5772 28.015C19.1389 27.4523 18.9079 26.7408 18.9079 25.853L18.5071 25.853L18.1064 25.853C18.1064 26.8872 18.3788 27.7806 18.9449 28.5075L19.261 28.2612ZM18.5071 25.853H18.9079C18.9079 24.8405 19.2243 23.8818 19.8729 22.9689L19.5462 22.7368L19.2195 22.5047C18.4832 23.5411 18.1064 24.6598 18.1064 25.853H18.5071ZM19.5462 22.7368L19.8757 22.9649C20.5342 22.0138 21.4431 21.15 22.6135 20.378L22.3929 20.0435L22.1722 19.7089C20.9318 20.5271 19.9432 21.4593 19.2167 22.5087L19.5462 22.7368ZM22.3929 20.0435L22.6135 20.378C23.7847 19.6055 25.1225 18.9791 26.6301 18.5017L26.5091 18.1196L26.3881 17.7376C24.8181 18.2348 23.4118 18.8913 22.1722 19.7089L22.3929 20.0435ZM26.5091 18.1196L26.6269 18.5027C26.8515 18.4336 27.056 18.3141 27.2023 18.123C27.3498 17.9303 27.4098 17.7016 27.4098 17.4665L27.0091 17.4663L26.6083 17.4662C26.6083 17.5642 26.5849 17.6109 26.5658 17.6359C26.5454 17.6625 26.5 17.7031 26.3912 17.7366L26.5091 18.1196ZM27.0091 17.4663H27.4098V13.9653H27.0091H26.6083V17.4663H27.0091ZM27.0091 13.9653H27.4098C27.4098 12.7156 27.219 11.7307 26.7525 11.1087L26.4319 11.3491L26.1113 11.5896C26.4143 11.9935 26.6083 12.7529 26.6083 13.9653H27.0091ZM26.4319 11.3491L26.758 11.1162C26.2976 10.4716 25.6503 10.1398 24.8548 10.1398V10.5405V10.9413C25.393 10.9413 25.7968 11.1494 26.1058 11.5821L26.4319 11.3491ZM24.8548 10.5405L24.8548 10.1398C24.0741 10.1399 23.3835 10.5053 22.7893 11.1561L23.0853 11.4263L23.3812 11.6965C23.8641 11.1676 24.3532 10.9413 24.8548 10.9413L24.8548 10.5405ZM23.0853 11.4263L22.7887 11.1567C22.1975 11.8073 21.8096 12.8621 21.5749 14.2439L21.97 14.311L22.3651 14.3781C22.5921 13.0419 22.9475 12.1738 23.3818 11.6958L23.0853 11.4263ZM21.97 14.311L21.5741 14.2492C21.4542 15.0163 21.1995 15.518 20.8582 15.8191L21.1234 16.1196L21.3885 16.4201C21.9193 15.9518 22.2294 15.2472 22.366 14.3729L21.97 14.311ZM21.1234 16.1196L20.8595 15.818C20.5035 16.1295 20.1704 16.2569 19.8538 16.257L19.8538 16.6577L19.8539 17.0585C20.4091 17.0584 20.9226 16.8278 21.3872 16.4212L21.1234 16.1196ZM19.8538 16.6577V16.257C19.5565 16.257 19.4072 16.1829 19.3293 16.1051C19.2515 16.0272 19.1774 15.8779 19.1774 15.5806H18.7767H18.3759C18.3759 16.0014 18.4814 16.3906 18.7626 16.6718C19.0438 16.953 19.433 17.0585 19.8538 17.0585V16.6577ZM18.7767 15.5806L19.1774 15.5806C19.1775 14.9142 19.3603 14.2513 19.7399 13.587L19.3919 13.3882L19.0439 13.1894C18.6031 13.961 18.376 14.7597 18.3759 15.5805L18.7767 15.5806ZM19.3919 13.3882L19.7376 13.5909C20.1498 12.8878 20.6841 12.2546 21.3442 11.6923L21.0843 11.3872L20.8244 11.0821C20.0996 11.6996 19.506 12.4011 19.0462 13.1855L19.3919 13.3882ZM21.0843 11.3872L21.3505 11.6867C22.0126 11.0982 22.7344 10.6341 23.5154 10.2924L23.3548 9.92529L23.1942 9.55814C22.3337 9.9346 21.541 10.4451 20.818 11.0877L21.0843 11.3872ZM23.3548 9.92529L23.5154 10.2924C24.2899 9.95362 25.0561 9.78797 25.8167 9.78796L25.8167 9.38721L25.8167 8.98645C24.936 8.98647 24.0609 9.17897 23.1942 9.55814L23.3548 9.92529ZM25.8167 9.38721V9.78796C27.0076 9.78796 27.8326 10.1309 28.3695 10.7545C28.9163 11.3897 29.2245 12.3846 29.2246 13.811L29.6253 13.811L30.0261 13.811C30.0261 12.288 29.6996 11.071 28.9769 10.2316C28.2443 9.38068 27.165 8.98645 25.8167 8.98645V9.38721ZM29.6253 13.811H29.2246V25.5835H29.6253H30.0261V13.811H29.6253ZM29.6253 25.5835H29.2246C29.2246 26.1427 29.2925 26.6218 29.4692 26.9749C29.5604 27.1571 29.6866 27.3178 29.858 27.4321C30.032 27.5481 30.2291 27.6005 30.4339 27.6005V27.1997V26.799C30.3694 26.799 30.3308 26.784 30.3026 26.7652C30.2719 26.7448 30.2296 26.7034 30.186 26.6162C30.0931 26.4305 30.0261 26.1015 30.0261 25.5835H29.6253ZM30.4339 27.1997L30.4341 27.6005C30.9672 27.6002 31.3807 27.2461 31.6932 26.7631L31.3568 26.5454L31.0203 26.3277C30.7688 26.7163 30.5671 26.7989 30.4337 26.799L30.4339 27.1997ZM31.3568 26.5454L31.6987 26.7544C32.0418 26.193 32.1804 25.3276 32.1804 24.2368H31.7796H31.3789C31.3789 25.3005 31.236 25.9745 31.0148 26.3364L31.3568 26.5454ZM31.7796 24.2368L32.1804 24.2369C32.1804 24.0761 32.2148 24.0297 32.2157 24.0286C32.2158 24.0285 32.2149 24.0296 32.2133 24.0307C32.2117 24.0319 32.2114 24.0318 32.2135 24.0309C32.2181 24.029 32.2376 24.0223 32.2806 24.0223V23.6216V23.2208C32.0277 23.2208 31.7734 23.3026 31.5945 23.5222C31.4282 23.7261 31.3789 23.9873 31.3789 24.2368L31.7796 24.2368ZM32.2806 23.6216L32.2803 24.0223C32.3099 24.0224 32.3165 24.0275 32.3107 24.0248C32.3029 24.0211 32.2982 24.0154 32.2987 24.0161C32.3063 24.0269 32.3408 24.0928 32.3408 24.2759H32.7415H33.1423C33.1423 24.0232 33.1 23.7619 32.954 23.5547C32.79 23.3217 32.5421 23.221 32.2808 23.2208L32.2806 23.6216ZM32.7415 24.2759L32.3408 24.2759C32.3407 26.1178 32.0097 27.3661 31.4267 28.106L31.7415 28.354L32.0563 28.602C32.807 27.6492 33.1422 26.1782 33.1423 24.2759L32.7415 24.2759ZM31.7415 28.354L31.4257 28.1073C31.4402 28.0887 31.4535 28.0752 31.4614 28.0675C31.4655 28.0636 31.4688 28.0605 31.4708 28.0587C31.4725 28.0571 31.474 28.0558 31.4736 28.0562C31.4736 28.0562 31.4731 28.0566 31.4725 28.0571C31.4719 28.0577 31.471 28.0585 31.4698 28.0596C31.4676 28.0616 31.4639 28.065 31.4595 28.0692C31.451 28.0775 31.4371 28.0916 31.4221 28.1108L31.7376 28.3579L32.0531 28.605C32.0386 28.6235 32.0254 28.637 32.0175 28.6446C32.0135 28.6485 32.0102 28.6515 32.0083 28.6533C32.0065 28.6548 32.0051 28.6561 32.0055 28.6557C32.0056 28.6557 32.0061 28.6553 32.0066 28.6547C32.0073 28.6542 32.0082 28.6533 32.0094 28.6523C32.0117 28.6502 32.0154 28.6468 32.0198 28.6425C32.0283 28.6342 32.0422 28.62 32.0573 28.6007L31.7415 28.354ZM31.7376 28.3579L31.8177 28.7506C31.8199 28.7501 31.822 28.7497 31.8235 28.7494C31.8251 28.7491 31.8262 28.7488 31.8272 28.7486C31.8292 28.7482 31.8295 28.7482 31.829 28.7483L31.7571 28.354L31.6853 27.9597C31.6732 27.962 31.659 27.9649 31.6575 27.9653L31.7376 28.3579ZM31.7571 28.354L31.8139 28.7507L32.353 28.6736L32.2962 28.2769L32.2394 27.8801L31.7004 27.9573L31.7571 28.354ZM32.2962 28.2769L32.3529 28.6736C32.9286 28.5913 33.4162 28.4192 33.7567 28.1128L33.4886 27.8149L33.2205 27.517C33.0481 27.6722 32.7408 27.8085 32.2395 27.8801L32.2962 28.2769ZM33.4886 27.8149L33.7567 28.1128C34.1352 27.7721 34.2741 27.2499 34.2741 26.6606H33.8734H33.4726C33.4726 27.1486 33.3549 27.3961 33.2205 27.5171L33.4886 27.8149ZM33.8734 26.6606H34.2741V4.6167H33.8734H33.4726V26.6606H33.8734ZM33.8734 4.6167H34.2741C34.2741 4.13818 34.2 3.68948 33.9474 3.39423L33.6429 3.65479L33.3384 3.91535C33.3931 3.9793 33.4726 4.17247 33.4726 4.6167H33.8734ZM33.6429 3.65479L33.969 3.42185C33.7377 3.09811 33.345 2.97538 32.94 2.94646L32.9114 3.34619L32.8829 3.74592C33.1961 3.76829 33.2915 3.85238 33.3168 3.88772L33.6429 3.65479ZM32.9114 3.34619L32.9632 2.9488L32.0784 2.83356L32.0267 3.23096L31.9749 3.62835L32.8597 3.74359L32.9114 3.34619ZM32.0267 3.23096L32.0984 2.83668C32.0118 2.82091 31.9977 2.79853 32.0049 2.8064C32.0084 2.81018 32.0097 2.81369 32.0093 2.81246C32.0084 2.80999 32.0046 2.79739 32.0046 2.76976L31.6038 2.77002L31.2031 2.77028C31.2032 2.97451 31.2614 3.18156 31.4143 3.34823C31.5624 3.5097 31.7597 3.58971 31.9549 3.62523L32.0267 3.23096ZM31.6038 2.77002H32.0046C32.0046 2.74231 32.0084 2.72956 32.0093 2.72694C32.0098 2.72555 32.0086 2.72894 32.0052 2.73266C31.998 2.74048 32.012 2.7181 32.0984 2.70238L32.0267 2.30811L31.9549 1.91383C31.7593 1.94943 31.5619 2.02979 31.4138 2.19162C31.2611 2.35854 31.2031 2.56574 31.2031 2.77002H31.6038ZM32.0267 2.30811L32.1106 2.69996C32.8444 2.54273 33.4828 2.35689 34.0222 2.14113L33.8734 1.76904L33.7245 1.39695C33.238 1.59157 32.6452 1.7657 31.9427 1.91625L32.0267 2.30811ZM33.8734 1.76904L34.0222 2.14113C34.5483 1.9307 34.9938 1.71608 35.3529 1.49512L35.1429 1.15381L34.9329 0.812498C34.6251 1.00185 34.2242 1.19707 33.7245 1.39695L33.8734 1.76904ZM35.1429 1.15381L35.3553 1.49365C35.5493 1.37236 35.7088 1.28809 35.8358 1.2352C35.9678 1.18025 36.0398 1.16979 36.0667 1.16979V0.769043V0.368291C35.8884 0.368291 35.7037 0.421978 35.5277 0.495286C35.3467 0.570662 35.1468 0.678778 34.9305 0.813972L35.1429 1.15381ZM45.7894 9.38721L45.7894 9.78796C46.9802 9.78797 47.8052 10.1309 48.3421 10.7546C48.8889 11.3897 49.1972 12.3846 49.1972 13.811L49.598 13.811L49.9987 13.811C49.9987 12.288 49.6722 11.071 48.9495 10.2316C48.2169 9.38071 47.1376 8.98647 45.7894 8.98645L45.7894 9.38721ZM49.598 13.811H49.1972V25.5835H49.598H49.9987V13.811H49.598ZM49.598 25.5835H49.1972C49.1972 26.1425 49.265 26.6214 49.4414 26.9745C49.5324 27.1567 49.6584 27.3175 49.8298 27.4318C50.0036 27.5479 50.2006 27.6004 50.4054 27.6005L50.4056 27.1997L50.4058 26.799C50.3414 26.7989 50.3028 26.784 50.2748 26.7652C50.2442 26.7448 50.202 26.7035 50.1584 26.6162C50.0656 26.4305 49.9987 26.1015 49.9987 25.5835H49.598ZM50.4056 27.1997V27.6005C50.9388 27.6005 51.353 27.2466 51.6659 26.7631L51.3294 26.5454L50.9929 26.3277C50.7416 26.7162 50.5392 26.799 50.4056 26.799V27.1997ZM51.3294 26.5454L51.6714 26.7544C52.0144 26.193 52.153 25.3275 52.153 24.2368H51.7523H51.3515C51.3515 25.3005 51.2086 25.9745 50.9874 26.3364L51.3294 26.5454ZM51.7523 24.2368L52.153 24.2369C52.153 24.0759 52.1874 24.0294 52.1883 24.0283C52.1884 24.0282 52.1882 24.0284 52.1876 24.029C52.1871 24.0295 52.1864 24.0301 52.1857 24.0306C52.1841 24.0318 52.1837 24.0317 52.1858 24.0308C52.1902 24.029 52.2095 24.0224 52.2524 24.0223L52.2523 23.6216L52.2521 23.2208C51.9992 23.2209 51.7451 23.3029 51.5664 23.5227C51.4006 23.7267 51.3515 23.9877 51.3515 24.2368L51.7523 24.2368ZM52.2523 23.6216V24.0223C52.2819 24.0223 52.2887 24.0275 52.2831 24.0248C52.2754 24.0212 52.2707 24.0156 52.2713 24.0164C52.2789 24.0272 52.3134 24.0929 52.3134 24.2759H52.7142H53.1149C53.1149 24.0228 53.0724 23.7614 52.926 23.5541C52.7616 23.3213 52.5135 23.2208 52.2523 23.2208V23.6216ZM52.7142 24.2759L52.3134 24.2759C52.3134 26.1178 51.9823 27.3661 51.3994 28.106L51.7142 28.354L52.029 28.602C52.7796 27.6492 53.1149 26.1782 53.1149 24.2759L52.7142 24.2759ZM51.7142 28.354L51.3984 28.1073C50.811 28.8591 50.1861 29.1837 49.5208 29.1837V29.5845V29.9852C50.4969 29.9852 51.3351 29.4901 52.03 28.6007L51.7142 28.354ZM49.5208 29.5845L49.5209 29.1837C49.03 29.1837 48.6633 28.9987 48.3815 28.6163L48.0589 28.854L47.7363 29.0917C48.1725 29.6837 48.7809 29.9851 49.5208 29.9852L49.5208 29.5845ZM48.0589 28.854L48.3872 28.6242C48.065 28.1639 47.8416 27.6159 47.7225 26.9724L47.3284 27.0454L46.9344 27.1184C47.0717 27.8599 47.3346 28.5181 47.7306 29.0838L48.0589 28.854ZM47.3284 27.0454L47.7272 27.0055C47.7098 26.8319 47.6569 26.6404 47.5201 26.4885C47.3719 26.3242 47.1745 26.2599 46.9818 26.2599V26.6606V27.0614C46.9914 27.0614 46.9853 27.0629 46.9701 27.0568C46.9626 27.0538 46.9542 27.0495 46.9457 27.0436C46.9372 27.0377 46.9302 27.0313 46.9247 27.0252C46.9137 27.0129 46.9129 27.0065 46.9161 27.0154C46.9196 27.0249 46.9258 27.0466 46.9297 27.0853L47.3284 27.0454ZM46.9818 26.6606L47.0382 26.2639C46.6218 26.2046 46.3151 26.4921 46.1154 26.7775L46.4437 27.0073L46.772 27.2371C46.8447 27.1332 46.8993 27.0848 46.9299 27.0651C46.9538 27.0496 46.9476 27.0606 46.9253 27.0574L46.9818 26.6606ZM46.4437 27.0073L46.1196 26.7716C45.5225 27.5926 44.925 28.1959 44.3326 28.5988L44.5579 28.9302L44.7833 29.2616C45.4732 28.7924 46.1338 28.1148 46.7678 27.243L46.4437 27.0073ZM44.5579 28.9302L44.3326 28.5988C43.7714 28.9804 43.0597 29.1837 42.1731 29.1837L42.1732 29.5845L42.1732 29.9852C43.1844 29.9852 44.0622 29.7519 44.7833 29.2616L44.5579 28.9302ZM42.1732 29.5845V29.1837C41.1859 29.1837 40.4043 28.8818 39.7959 28.2958L39.5179 28.5845L39.2399 28.8731C40.0164 29.6209 41.006 29.9852 42.1732 29.9852V29.5845ZM39.5179 28.5845L39.8013 28.3011C39.1957 27.6955 38.8806 26.8928 38.8806 25.853L38.4798 25.853L38.079 25.853C38.0791 27.0699 38.4553 28.0886 39.2345 28.8678L39.5179 28.5845ZM38.4798 25.853H38.8806C38.8806 24.8404 39.1962 23.8815 39.8446 22.9689L39.5179 22.7368L39.1912 22.5047C38.4549 23.5412 38.079 24.6602 38.079 25.853H38.4798ZM39.5179 22.7368L39.8474 22.9649C40.5058 22.0139 41.4156 21.1501 42.5862 20.378L42.3655 20.0435L42.1449 19.7089C40.9046 20.527 39.915 21.4592 39.1884 22.5087L39.5179 22.7368ZM42.3655 20.0435L42.5862 20.378C43.7574 19.6055 45.0952 18.9791 46.6027 18.5017L46.4818 18.1196L46.3608 17.7376C44.7908 18.2347 43.3845 18.8913 42.1449 19.7089L42.3655 20.0435ZM46.4818 18.1196L46.5996 18.5027C46.8241 18.4336 47.0286 18.3141 47.1749 18.123C47.3224 17.9303 47.3824 17.7016 47.3825 17.4665L46.9818 17.4663L46.581 17.4662C46.581 17.5642 46.5576 17.6109 46.5385 17.6359C46.5181 17.6625 46.4726 17.7031 46.3639 17.7366L46.4818 18.1196ZM46.9818 17.4663H47.3825V13.9653H46.9818H46.581V17.4663H46.9818ZM46.9818 13.9653H47.3825C47.3825 12.7156 47.1917 11.7307 46.7252 11.1087L46.4046 11.3491L46.084 11.5896C46.3869 11.9935 46.581 12.7529 46.581 13.9653H46.9818ZM46.4046 11.3491L46.7307 11.1162C46.2703 10.4716 45.6229 10.1398 44.8275 10.1398V10.5405V10.9413C45.3657 10.9413 45.7695 11.1494 46.0785 11.5821L46.4046 11.3491ZM44.8275 10.5405L44.8274 10.1398C44.0467 10.1398 43.3562 10.5052 42.762 11.1561L43.0579 11.4263L43.3539 11.6965C43.8369 11.1675 44.3258 10.9413 44.8275 10.9413L44.8275 10.5405ZM43.0579 11.4263L42.7614 11.1567C42.1702 11.8072 41.7813 12.8617 41.5466 14.2439L41.9417 14.311L42.3368 14.3781C42.5637 13.0421 42.9199 12.1739 43.3545 11.6958L43.0579 11.4263ZM41.9417 14.311L41.5458 14.2492C41.4258 15.0167 41.1718 15.5182 40.8308 15.8191L41.096 16.1196L41.3612 16.4201C41.8921 15.9516 42.2011 15.2468 42.3377 14.3729L41.9417 14.311ZM41.096 16.1196L40.8321 15.818C40.4763 16.1294 40.143 16.2569 39.8264 16.257L39.8265 16.6577L39.8266 17.0585C40.3817 17.0583 40.8953 16.8278 41.3599 16.4212L41.096 16.1196ZM39.8265 16.6577V16.257C39.5292 16.257 39.3798 16.1829 39.302 16.1051C39.2241 16.0272 39.1501 15.8779 39.1501 15.5806H38.7493H38.3486C38.3486 16.0014 38.454 16.3906 38.7352 16.6718C39.0164 16.953 39.4057 17.0585 39.8265 17.0585V16.6577ZM38.7493 15.5806L39.1501 15.5806C39.1501 14.9142 39.3329 14.2514 39.7125 13.587L39.3646 13.3882L39.0166 13.1894C38.5757 13.961 38.3486 14.7596 38.3486 15.5805L38.7493 15.5806ZM39.3646 13.3882L39.7103 13.5909C40.1225 12.8877 40.6568 12.2546 41.3168 11.6923L41.0569 11.3872L40.7971 11.0821C40.0722 11.6996 39.4787 12.4011 39.0188 13.1855L39.3646 13.3882ZM41.0569 11.3872L41.3232 11.6867C41.9853 11.0982 42.7071 10.6341 43.4881 10.2924L43.3275 9.92529L43.1668 9.55814C42.3063 9.9346 41.5136 10.4451 40.7907 11.0877L41.0569 11.3872ZM43.3275 9.92529L43.4881 10.2925C44.2626 9.95364 45.0288 9.78796 45.7894 9.78796V9.38721V8.98645C44.9087 8.98645 44.0336 9.179 43.1668 9.55813L43.3275 9.92529ZM56.3079 1.53857V1.93933C56.5689 1.93933 56.7639 1.99629 56.9122 2.08957C57.0597 2.18231 57.1884 2.32802 57.2898 2.55109L57.6546 2.38525L58.0194 2.21942C57.8643 1.87823 57.6403 1.6006 57.3389 1.41106C57.0383 1.22206 56.6881 1.13782 56.3079 1.13782V1.53857ZM57.6546 2.38525L57.2898 2.55114L66.3689 22.5179L66.7337 22.3521L67.0985 22.1862L58.0194 2.21937L57.6546 2.38525ZM66.7337 22.3521L66.3753 22.5313C66.4283 22.6374 66.5064 22.7564 66.6262 22.8418C66.7617 22.9384 66.9294 22.9758 67.1001 22.9333L67.0032 22.5444L66.9064 22.1556C66.9338 22.1487 66.9691 22.1461 67.0075 22.1538C67.0453 22.1614 67.0737 22.1765 67.0916 22.1892C67.1214 22.2105 67.116 22.2205 67.0921 22.1728L66.7337 22.3521ZM67.0032 22.5444L67.0818 22.9374C67.2264 22.9085 67.3719 22.8333 67.4737 22.6905C67.57 22.5556 67.5964 22.4033 67.5964 22.2749H67.1956H66.7949C66.7949 22.3003 66.7891 22.27 66.8213 22.225C66.8377 22.202 66.8587 22.183 66.881 22.1696C66.9023 22.1568 66.9189 22.1526 66.9246 22.1515L67.0032 22.5444ZM67.1956 22.2749H67.5964V4.84717H67.1956H66.7949V22.2749H67.1956ZM67.1956 4.84717H67.5964C67.5964 4.0102 67.459 3.30931 67.0682 2.88301L66.7728 3.15381L66.4773 3.42461C66.6508 3.61386 66.7949 4.04266 66.7949 4.84717H67.1956ZM66.7728 3.15381L67.0787 2.89491C66.7351 2.48902 66.2918 2.2369 65.7653 2.14393L65.6956 2.53857L65.6259 2.93322C65.9711 2.99418 66.2463 3.15208 66.4669 3.41271L66.7728 3.15381ZM65.6956 2.53857L65.7614 2.14326L65.069 2.02803L65.0032 2.42334L64.9374 2.81865L65.6298 2.93389L65.6956 2.53857ZM65.0032 2.42334L65.0933 2.03285C64.9627 2.00271 64.9122 1.96727 64.8993 1.95539C64.895 1.95148 64.898 1.95316 64.9012 1.96038C64.9043 1.96747 64.903 1.96963 64.903 1.96143H64.5023H64.1015C64.1015 2.18705 64.1889 2.39073 64.3561 2.5448C64.5104 2.68693 64.7103 2.76703 64.9131 2.81383L65.0032 2.42334ZM64.5023 1.96143L64.903 1.96157C64.903 1.93644 64.9073 1.93347 64.9031 1.94263C64.8979 1.95401 64.8892 1.96348 64.8835 1.96766C64.8802 1.9701 64.8891 1.96244 64.9222 1.95434C64.9557 1.94616 65.0066 1.93934 65.0795 1.93933L65.0794 1.53857L65.0793 1.13782C64.85 1.13788 64.6055 1.17784 64.41 1.321C64.1913 1.48114 64.1016 1.7188 64.1015 1.96128L64.5023 1.96143ZM65.0794 1.53857V1.93933H70.5814V1.53857V1.13782H65.0794V1.53857ZM70.5814 1.53857L70.5813 1.93933C70.6543 1.93933 70.7053 1.94614 70.7387 1.95431C70.7718 1.9624 70.7807 1.97005 70.7773 1.96757C70.7715 1.96335 70.7628 1.95384 70.7576 1.94247C70.7535 1.93333 70.7577 1.93634 70.7578 1.96157L71.1585 1.96143L71.5593 1.96128C71.5592 1.71895 71.4697 1.4812 71.2509 1.32097C71.0554 1.17774 70.8108 1.13783 70.5814 1.13782L70.5814 1.53857ZM71.1585 1.96143H70.7578C70.7578 1.99293 70.7531 2.00547 70.7529 2.00589C70.7529 2.00602 70.7536 2.00414 70.7555 2.00123C70.7575 1.99828 70.7597 1.99582 70.7615 1.99417C70.7693 1.98698 70.7453 2.0147 70.6277 2.02378L70.6585 2.42334L70.6893 2.8229C70.905 2.80627 71.131 2.74407 71.3054 2.58285C71.4901 2.41227 71.5593 2.18515 71.5593 1.96143H71.1585ZM70.6585 2.42334L70.5974 2.02727L70.0974 2.10442L70.1585 2.50049L70.2196 2.89655L70.7196 2.8194L70.6585 2.42334ZM70.1585 2.50049L70.0976 2.1044C69.3883 2.21352 68.8035 2.45674 68.4552 2.90942L68.7728 3.15381L69.0904 3.3982C69.2551 3.18418 69.5952 2.99261 70.2194 2.89658L70.1585 2.50049ZM68.7728 3.15381L68.4649 2.89725C68.1111 3.32178 67.9873 4.01499 67.9873 4.84717H68.388H68.7887C68.7887 4.03787 68.9214 3.60139 69.0806 3.41036L68.7728 3.15381ZM68.388 4.84717H67.9873V28.354H68.388H68.7887V4.84717H68.388ZM68.388 28.354L67.9873 28.354C67.9872 28.7881 67.8983 28.9693 67.8358 29.0318L68.1194 29.3149L68.4031 29.598C68.6991 29.3015 68.7887 28.8421 68.7887 28.3541L68.388 28.354ZM68.1194 29.3149L67.8152 29.0541C67.7445 29.1366 67.654 29.1837 67.5032 29.1837V29.5845V29.9852C67.8654 29.9852 68.1866 29.8523 68.4237 29.5757L68.1194 29.3149ZM67.5032 29.5845L67.5034 29.1837C67.3365 29.1837 67.0923 29.068 66.8294 28.4946L66.4651 28.6616L66.1009 28.8286C66.402 29.4855 66.8497 29.985 67.5031 29.9852L67.5032 29.5845ZM66.4651 28.6616L66.8291 28.4939L56.4023 5.8718L56.0384 6.03955L55.6744 6.2073L66.1012 28.8294L66.4651 28.6616ZM56.0384 6.03955L56.4067 5.88156C56.3539 5.75842 56.2735 5.62367 56.1441 5.52672C55.9995 5.41841 55.8254 5.38148 55.6522 5.41611L55.7308 5.80908L55.8094 6.20205C55.7926 6.2054 55.7664 6.2072 55.7353 6.20031C55.704 6.19336 55.6796 6.18022 55.6635 6.16819C55.6487 6.15709 55.6444 6.14957 55.6477 6.15424C55.651 6.15897 55.6592 6.17208 55.6701 6.19754L56.0384 6.03955ZM55.7308 5.80908L55.6329 5.42048C55.4384 5.46948 55.314 5.60664 55.2494 5.75243C55.1914 5.88333 55.1767 6.02726 55.1767 6.15468L55.5775 6.15479L55.9782 6.15489C55.9782 6.11955 55.9805 6.09568 55.9828 6.08115C55.9852 6.06614 55.9867 6.0668 55.9821 6.0772C55.9772 6.08831 55.9638 6.11364 55.9349 6.1402C55.9043 6.16833 55.8669 6.18807 55.8287 6.19769L55.7308 5.80908ZM55.5775 6.15479H55.1767V25.9302H55.5775H55.9782V6.15479H55.5775ZM55.5775 25.9302L55.1767 25.9302C55.1767 26.681 55.2951 27.3167 55.5795 27.7907L55.9232 27.5845L56.2668 27.3783C56.0896 27.0829 55.9782 26.6153 55.9782 25.9302L55.5775 25.9302ZM55.9232 27.5845L55.5971 27.8174C55.9401 28.2976 56.5095 28.561 57.2065 28.6726L57.2698 28.2769L57.3332 27.8811C56.748 27.7875 56.4192 27.5894 56.2492 27.3515L55.9232 27.5845ZM57.2698 28.2769L57.2087 28.6729L57.7087 28.7501L57.7698 28.354L57.8309 27.9579L57.3309 27.8808L57.2698 28.2769ZM57.7698 28.354L57.7391 28.7536C57.8572 28.7627 57.8811 28.7904 57.8732 28.7831C57.8714 28.7814 57.8691 28.7788 57.8671 28.7758C57.865 28.7728 57.8643 28.7708 57.8643 28.7709C57.8644 28.7711 57.8691 28.7836 57.8691 28.8151L58.2698 28.8149L58.6706 28.8148C58.6705 28.5912 58.6013 28.3641 58.4164 28.1937C58.2418 28.0328 58.0158 27.971 57.8006 27.9544L57.7698 28.354ZM58.2698 28.8149H57.8691C57.8691 28.8402 57.8648 28.8434 57.8689 28.8345C57.8739 28.8233 57.8825 28.8139 57.8882 28.8097C57.8916 28.8073 57.8827 28.8149 57.8497 28.823C57.8164 28.8312 57.7656 28.838 57.6927 28.838V29.2388V29.6395C57.9225 29.6395 58.1673 29.5993 58.3628 29.4556C58.5813 29.295 58.6706 29.0572 58.6706 28.8149H58.2698ZM57.6927 29.2388V28.838H52.1917V29.2388V29.6395H57.6927V29.2388ZM52.1917 29.2388V28.838C52.1188 28.838 52.068 28.8312 52.0347 28.823C52.0017 28.8149 51.9928 28.8073 51.9962 28.8097C52.0019 28.8139 52.0105 28.8233 52.0155 28.8345C52.0196 28.8434 52.0153 28.8402 52.0153 28.8149H51.6146H51.2138C51.2138 29.0572 51.3031 29.295 51.5216 29.4556C51.7171 29.5993 51.9619 29.6395 52.1917 29.6395V29.2388ZM51.6146 28.8149L52.0153 28.8151C52.0153 28.7836 52.02 28.7712 52.0201 28.771C52.0201 28.7709 52.0194 28.7729 52.0173 28.7759C52.0153 28.7789 52.013 28.7814 52.0112 28.7831C52.0033 28.7904 52.0273 28.7627 52.1453 28.7536L52.1146 28.354L52.0838 27.9544C51.8686 27.971 51.6426 28.0328 51.4681 28.1937C51.2832 28.364 51.2139 28.5911 51.2138 28.8148L51.6146 28.8149ZM52.1146 28.354L52.1757 28.7501L52.6757 28.6729L52.6146 28.2769L52.5535 27.8808L52.0535 27.9579L52.1146 28.354ZM52.6146 28.2769L52.6755 28.6729C53.3934 28.5625 53.9795 28.3012 54.3253 27.8176L53.9993 27.5845L53.6733 27.3514C53.506 27.5854 53.1689 27.7861 52.5536 27.8808L52.6146 28.2769ZM53.9993 27.5845L54.3328 27.8068C54.6512 27.3292 54.7848 26.6868 54.7848 25.9302L54.3841 25.9302L53.9833 25.9302C53.9833 26.6095 53.8604 27.0705 53.6659 27.3622L53.9993 27.5845ZM54.3841 25.9302H54.7848V4.07764H54.3841H53.9833V25.9302H54.3841ZM54.3841 4.07764H54.7848C54.7848 3.78925 54.7613 3.52972 54.706 3.30766C54.6513 3.08806 54.5585 2.87691 54.3991 2.71728L54.1155 3.00049L53.832 3.2837C53.8519 3.30367 53.8935 3.36189 53.9282 3.50136C53.9623 3.63838 53.9833 3.82762 53.9833 4.07764H54.3841ZM54.1155 3.00049L54.4198 2.73968C54.2788 2.57512 54.0739 2.46531 53.8628 2.38542C53.6443 2.3027 53.3767 2.2365 53.068 2.18281L52.9993 2.57764L52.9307 2.97246C53.2119 3.02137 53.4254 3.07683 53.579 3.135C53.7402 3.196 53.7984 3.24632 53.8113 3.26129L54.1155 3.00049ZM52.9993 2.57764L53.0682 2.18284L52.1834 2.02855L52.1146 2.42334L52.0457 2.81813L52.9305 2.97243L52.9993 2.57764ZM52.1146 2.42334L52.2047 2.03286C52.0742 2.00273 52.0241 1.96737 52.0115 1.95576C52.0075 1.952 52.0105 1.95376 52.0136 1.96093C52.0166 1.96793 52.0153 1.96991 52.0153 1.96143H51.6146H51.2138C51.2138 2.18637 51.3005 2.39003 51.4676 2.5444C51.6217 2.68681 51.8216 2.76699 52.0244 2.81382L52.1146 2.42334ZM51.6146 1.96143L52.0153 1.96157C52.0153 1.93633 52.0196 1.9333 52.0154 1.94244C52.0103 1.95381 52.0015 1.96333 51.9958 1.96755C51.9924 1.97004 52.0012 1.9624 52.0343 1.9543C52.0678 1.94614 52.1187 1.93933 52.1917 1.93933V1.53857V1.13782C51.9623 1.13782 51.7177 1.17772 51.5221 1.32096C51.3034 1.48121 51.2139 1.71898 51.2138 1.96128L51.6146 1.96143ZM52.1917 1.53857V1.93933H56.3079V1.53857V1.13782H52.1917V1.53857ZM91.4915 9.38721V9.78796C91.9705 9.78796 92.4361 9.84786 92.8895 9.96715L92.9915 9.57959L93.0935 9.19203C92.5724 9.05494 92.0382 8.98645 91.4915 8.98645V9.38721ZM92.9915 9.57959L92.909 9.97175C93.3507 10.0647 93.739 10.2252 94.0778 10.4511L94.3001 10.1177L94.5224 9.78423C94.0918 9.49714 93.607 9.29963 93.0741 9.18743L92.9915 9.57959ZM94.3001 10.1177L94.0778 10.4511C94.2073 10.5375 94.245 10.6226 94.2451 10.7331L94.6458 10.7329L95.0466 10.7327C95.0464 10.3306 94.8543 10.0055 94.5224 9.78424L94.3001 10.1177ZM94.6458 10.7329L94.2451 10.7402L94.3223 14.9726L94.723 14.9653L95.1236 14.958L95.0465 10.7256L94.6458 10.7329ZM94.723 14.9653L94.3222 14.9653C94.3222 15.1147 94.2905 15.1527 94.2945 15.1477C94.2987 15.1425 94.3055 15.1379 94.3089 15.1365C94.3099 15.1361 94.2969 15.1417 94.261 15.1417V15.5425V15.9432C94.5034 15.9432 94.7486 15.863 94.9203 15.6486C95.0783 15.4512 95.1237 15.2006 95.1237 14.9654L94.723 14.9653ZM94.261 15.5425L94.2613 15.1417C94.2085 15.1417 94.1852 15.1339 94.1805 15.132C94.1787 15.1313 94.1811 15.132 94.1855 15.1354C94.1901 15.1388 94.1945 15.1432 94.1978 15.1477L93.8773 15.3882L93.5567 15.6287C93.7358 15.8674 94.0077 15.9431 94.2608 15.9432L94.261 15.5425ZM93.8773 15.3882L94.2209 15.182C94.1657 15.09 94.114 14.9702 94.0702 14.8171L93.6849 14.9272L93.2996 15.0374C93.3583 15.2429 93.4351 15.4302 93.5336 15.5944L93.8773 15.3882ZM93.6849 14.9272L94.0679 14.8094C93.5531 13.1361 93.0222 11.9184 92.4588 11.214L92.1458 11.4644L91.8329 11.7147C92.2953 12.2928 92.7909 13.3844 93.3018 15.0451L93.6849 14.9272ZM92.1458 11.4644L92.4635 11.22C91.8858 10.4691 91.1456 10.0636 90.2601 10.0636V10.4644V10.8651C90.8622 10.8651 91.3799 11.1259 91.8282 11.7087L92.1458 11.4644ZM90.2601 10.4644L90.26 10.0636C89.4894 10.0637 88.8303 10.3354 88.3144 10.8816L88.6058 11.1567L88.8971 11.4319C89.2531 11.0549 89.6973 10.8652 90.2601 10.8651L90.2601 10.4644ZM88.6058 11.1567L88.3144 10.8816C87.8015 11.4249 87.5517 12.1039 87.5517 12.8882H87.9525H88.3532C88.3532 12.2877 88.5384 11.8119 88.8972 11.4319L88.6058 11.1567ZM87.9525 12.8882L87.5517 12.8882C87.5518 13.8725 87.8493 14.745 88.4483 15.4867L88.7601 15.2349L89.0718 14.9831C88.5938 14.3912 88.3533 13.6988 88.3532 12.8881L87.9525 12.8882ZM88.7601 15.2349L88.4483 15.4867C89.0247 16.2002 90.039 17.0474 91.4561 18.0265L91.6839 17.6968L91.9117 17.3671C90.5078 16.3971 89.5728 15.6032 89.0718 14.983L88.7601 15.2349ZM91.6839 17.6968L91.4497 18.022C92.6988 18.9213 93.6185 19.8833 94.2253 20.9027L94.5696 20.6978L94.914 20.4928C94.2384 19.3577 93.2338 18.3189 91.9181 17.3716L91.6839 17.6968ZM94.5696 20.6978L94.2312 20.9124C94.8568 21.8989 95.1688 22.9784 95.1689 24.1597L95.5696 24.1597L95.9704 24.1596C95.9703 22.8279 95.6159 21.5994 94.9081 20.4832L94.5696 20.6978ZM95.5696 24.1597H95.1689C95.1689 25.7071 94.6774 26.9179 93.7163 27.8322L93.9925 28.1226L94.2687 28.4129C95.4104 27.3267 95.9704 25.8949 95.9704 24.1597H95.5696ZM93.9925 28.1226L93.7201 27.8286C92.7568 28.7214 91.4759 29.1837 89.8372 29.1837V29.5845V29.9852C91.6354 29.9852 93.125 29.473 94.2649 28.4165L93.9925 28.1226ZM89.8372 29.5845V29.1837C89.282 29.1837 88.6842 29.1116 88.0425 28.9635L87.9525 29.354L87.8624 29.7445C88.5541 29.9041 89.2128 29.9852 89.8372 29.9852V29.5845ZM87.9525 29.354L88.0281 28.9605C87.3817 28.8361 86.8814 28.6785 86.5154 28.4956L86.3362 28.854L86.157 29.2125C86.6118 29.4398 87.1896 29.6154 87.8768 29.7475L87.9525 29.354ZM86.3362 28.854L86.5309 28.5037C86.4504 28.459 86.3903 28.3905 86.3903 28.1997L85.9896 28.1997L85.5888 28.1997C85.5888 28.6244 85.7604 28.9925 86.1416 29.2043L86.3362 28.854ZM85.9896 28.1997L86.3902 28.1888L86.3628 27.183L85.9622 27.1938L85.5616 27.2047L85.589 28.2106L85.9896 28.1997ZM85.9622 27.1938L85.7377 26.8619C85.6969 26.8895 85.6101 26.9293 85.4508 26.9592L85.5247 27.353L85.5986 27.7469C85.8206 27.7053 86.0235 27.6362 86.1867 27.5258L85.9622 27.1938ZM85.5247 27.353L85.4734 26.9556C84.6414 27.0629 83.9387 27.2819 83.3869 27.6304L83.6009 27.9692L83.8149 28.3081C84.2377 28.041 84.8178 27.8483 85.576 27.7505L85.5247 27.353ZM83.6009 27.9692L83.3786 27.6358C82.8839 27.9656 82.4439 28.3637 82.0601 28.8297L82.3694 29.0845L82.6788 29.3392C83.0131 28.9333 83.3947 28.5884 83.8232 28.3027L83.6009 27.9692ZM82.3694 29.0845L82.0861 28.8011C81.9843 28.9029 81.9042 28.9656 81.8456 29.0009C81.7847 29.0375 81.7704 29.0304 81.7923 29.0304V29.4312V29.8319C81.9681 29.8319 82.127 29.7669 82.2585 29.6878C82.3922 29.6074 82.5238 29.4968 82.6528 29.3679L82.3694 29.0845ZM81.7923 29.4312L81.7926 29.0304C81.7792 29.0304 81.7863 29.0282 81.8043 29.0362C81.8133 29.0402 81.823 29.0459 81.8324 29.0535C81.8418 29.061 81.849 29.0688 81.8539 29.0755C81.8636 29.0885 81.8615 29.092 81.857 29.0741C81.8525 29.0558 81.8474 29.0224 81.8473 28.9692L81.4466 28.9692L81.0458 28.9693C81.0459 29.1615 81.0798 29.3786 81.2121 29.5555C81.3606 29.7541 81.5786 29.8318 81.792 29.8319L81.7923 29.4312ZM81.4466 28.9692H81.8473V27.1997H81.4466H81.0458V28.9692H81.4466ZM81.4466 27.1997H81.8473C81.8473 27.0532 81.8207 26.8844 81.7218 26.7364C81.6139 26.5749 81.4525 26.4863 81.281 26.4577L81.2151 26.853L81.1493 27.2483C81.1446 27.2475 81.1282 27.2439 81.1072 27.2311C81.0853 27.2177 81.0675 27.1998 81.0554 27.1817C81.0441 27.1648 81.0419 27.154 81.0425 27.1565C81.0432 27.1596 81.0458 27.1728 81.0458 27.1997H81.4466ZM81.2151 26.853L81.3634 26.4807C81.0093 26.3397 80.7022 26.5307 80.5089 26.7239L80.7923 27.0073L81.0757 27.2907C81.1007 27.2656 81.1204 27.2497 81.1343 27.24C81.1481 27.2304 81.1536 27.2288 81.1508 27.2298C81.1473 27.2311 81.1355 27.2347 81.1174 27.2347C81.0987 27.2348 81.081 27.231 81.0669 27.2253L81.2151 26.853ZM80.7923 27.0073L80.5089 26.7239C79.574 27.6589 78.761 28.2935 78.0691 28.6514L78.2532 29.0073L78.4374 29.3633C79.2329 28.9518 80.1129 28.2534 81.0757 27.2907L80.7923 27.0073ZM78.2532 29.0073L78.064 28.6541C77.4098 29.0045 76.6679 29.1837 75.8294 29.1837V29.5845V29.9852C76.7863 29.9852 77.6604 29.7796 78.4425 29.3606L78.2532 29.0073ZM75.8294 29.5845V29.1837C75.2491 29.1837 74.6925 29.0569 74.1556 28.8001L73.9827 29.1616L73.8098 29.5232C74.4527 29.8306 75.1273 29.9852 75.8294 29.9852V29.5845ZM73.9827 29.1616L74.1556 28.8001C73.6419 28.5544 73.2096 28.1609 72.8606 27.6025L72.5208 27.8149L72.181 28.0273C72.6014 28.7001 73.1438 29.2046 73.8098 29.5232L73.9827 29.1616ZM72.5208 27.8149L72.8606 27.6025C72.529 27.0719 72.3445 26.3333 72.3444 25.353L71.9437 25.353L71.5429 25.353C71.543 26.4244 71.7433 27.327 72.181 28.0273L72.5208 27.8149ZM71.9437 25.353H72.3444V11.9644H71.9437H71.5429V25.353H71.9437ZM71.9437 11.9644L72.3444 11.9643C72.3444 11.4859 72.2706 11.037 72.0175 10.7417L71.7132 11.0024L71.4089 11.2632C71.4635 11.327 71.5429 11.5197 71.5429 11.9644L71.9437 11.9644ZM71.7132 11.0024L72.0393 10.7695C71.8076 10.4452 71.414 10.3239 71.0103 10.2951L70.9818 10.6948L70.9532 11.0946C71.2676 11.117 71.3623 11.2007 71.3871 11.2354L71.7132 11.0024ZM70.9818 10.6948L71.0287 10.2968L70.3744 10.2197L70.3275 10.6177L70.2805 11.0157L70.9348 11.0928L70.9818 10.6948ZM70.3275 10.6177L70.3744 10.2197C70.1892 10.1979 70.108 10.1566 70.081 10.1359C70.0712 10.1284 70.0728 10.127 70.0755 10.1326C70.078 10.1378 70.0749 10.1356 70.0749 10.1177H69.6741H69.2734C69.2734 10.3792 69.3826 10.6107 69.5938 10.7724C69.7845 10.9184 70.03 10.9861 70.2805 11.0157L70.3275 10.6177ZM69.6741 10.1177L70.0749 10.1177C70.0749 10.0832 70.0811 10.0724 70.0801 10.0744C70.0782 10.0782 70.076 10.0783 70.0831 10.0734C70.1075 10.0567 70.1943 10.0185 70.4047 10.0184L70.4046 9.61768L70.4045 9.21692C70.1278 9.21696 69.8494 9.26205 69.6303 9.41202C69.3839 9.58069 69.2734 9.83878 69.2734 10.1176L69.6741 10.1177ZM70.4046 9.61768V10.0184H73.9827V9.61768V9.21692H70.4046V9.61768ZM73.9827 9.61768V10.0184C74.0467 10.0184 74.0864 10.0266 74.1085 10.0339C74.1191 10.0375 74.1252 10.0407 74.1282 10.0425C74.131 10.0442 74.132 10.0452 74.1322 10.0454C74.1324 10.0455 74.1334 10.0465 74.1351 10.0493C74.1369 10.0523 74.1401 10.0584 74.1436 10.0691C74.151 10.0912 74.1591 10.1309 74.1591 10.1948H74.5599H74.9606C74.9606 9.94065 74.8968 9.67645 74.6989 9.47861C74.5011 9.28076 74.2369 9.21692 73.9827 9.21692V9.61768ZM74.5599 10.1948H74.1591V24.5444H74.5599H74.9606V10.1948H74.5599ZM74.5599 24.5444H74.1591C74.1591 25.7547 74.3795 26.7202 74.9088 27.343L75.2142 27.0835L75.5195 26.824C75.1769 26.4208 74.9606 25.6936 74.9606 24.5444H74.5599ZM75.2142 27.0835L74.9232 27.3591C75.4743 27.9408 76.2156 28.2157 77.0989 28.2157L77.0989 27.8149L77.0989 27.4142C76.3922 27.4142 75.8773 27.2008 75.5051 26.8079L75.2142 27.0835ZM77.0989 27.8149V28.2157C77.9723 28.2157 78.7598 27.9743 79.4468 27.4877L79.2151 27.1606L78.9835 26.8336C78.4394 27.219 77.8157 27.4142 77.0989 27.4142V27.8149ZM79.2151 27.1606L79.4556 27.4812C80.1259 26.9785 80.6531 26.3244 81.038 25.5273L80.6771 25.353L80.3162 25.1788C79.983 25.8689 79.5352 26.4196 78.9747 26.8401L79.2151 27.1606ZM80.6771 25.353L81.0355 25.5322C81.4493 24.7047 81.655 23.8092 81.655 22.8521H81.2542H80.8535C80.8535 23.6903 80.6743 24.4625 80.3186 25.1738L80.6771 25.353ZM81.2542 22.8521H81.655V11.9644H81.2542H80.8535V22.8521H81.2542ZM81.2542 11.9644L81.655 11.9643C81.655 11.4848 81.5798 11.0366 81.327 10.7416L81.0228 11.0024L80.7185 11.2632C80.7735 11.3274 80.8535 11.5207 80.8535 11.9644L81.2542 11.9644ZM81.0228 11.0024L81.3487 10.7693C81.1172 10.4457 80.7251 10.324 80.3209 10.2951L80.2923 10.6948L80.2637 11.0946C80.5771 11.117 80.6717 11.2005 80.6968 11.2356L81.0228 11.0024ZM80.2923 10.6948L80.3392 10.2968L79.6849 10.2197L79.638 10.6177L79.5911 11.0157L80.2454 11.0928L80.2923 10.6948ZM79.638 10.6177L79.6849 10.2197C79.4996 10.1979 79.418 10.1566 79.3907 10.1357C79.3807 10.1281 79.3823 10.1267 79.385 10.1323C79.3876 10.1375 79.3845 10.1354 79.3845 10.1177H78.9837H78.583C78.583 10.3797 78.6928 10.6112 78.9041 10.7727C79.095 10.9184 79.3405 10.9862 79.5911 11.0157L79.638 10.6177ZM78.9837 10.1177L79.3845 10.1177C79.3845 10.0834 79.3906 10.0727 79.3896 10.0747C79.3877 10.0785 79.3855 10.0785 79.3928 10.0735C79.4175 10.0567 79.5047 10.0184 79.7151 10.0184V9.61768V9.21692C79.4383 9.21692 79.1598 9.262 78.9406 9.41178C78.6941 9.58025 78.583 9.83829 78.583 10.1176L78.9837 10.1177ZM79.7151 9.61768V10.0184H83.2933V9.61768V9.21692H79.7151V9.61768ZM83.2933 9.61768L83.2932 10.0184C83.3571 10.0184 83.3968 10.0266 83.4189 10.034C83.4296 10.0375 83.4357 10.0407 83.4387 10.0425C83.4415 10.0442 83.4425 10.0452 83.4427 10.0454C83.4429 10.0456 83.4439 10.0466 83.4456 10.0495C83.4474 10.0524 83.4506 10.0586 83.4542 10.0692C83.4615 10.0913 83.4697 10.1309 83.4697 10.1948H83.8704H84.2712C84.2712 9.94059 84.2072 9.67643 84.0094 9.47863C83.8116 9.28087 83.5475 9.21697 83.2934 9.21692L83.2933 9.61768ZM83.8704 10.1948H83.4697V25.1216H83.8704H84.2712V10.1948H83.8704ZM83.8704 25.1216H83.4697C83.4697 25.5925 83.5297 26.0266 83.7367 26.3164L84.0628 26.0835L84.3889 25.8506C84.3394 25.7813 84.2712 25.574 84.2712 25.1216H83.8704ZM84.0628 26.0835L83.7795 26.3669C84.0237 26.6111 84.3831 26.7318 84.7757 26.7878L84.8323 26.3911L84.889 25.9944C84.5635 25.9479 84.4097 25.8636 84.3461 25.8001L84.0628 26.0835ZM84.8323 26.3911L84.7753 26.7878L85.5829 26.904L85.64 26.5073L85.697 26.1107L84.8894 25.9944L84.8323 26.3911ZM85.64 26.5073L85.6092 26.9069C85.7054 26.9143 85.7517 26.9308 85.7678 26.9387L85.9456 26.5796L86.1235 26.2205C85.983 26.1509 85.8256 26.1197 85.6707 26.1078L85.64 26.5073ZM85.9456 26.5796L86.3462 26.569L86.2749 23.8805L85.8743 23.8911L85.4737 23.9017L85.545 26.5902L85.9456 26.5796ZM85.8743 23.8911H86.2751C86.2751 23.7131 86.3111 23.6527 86.3178 23.6439C86.3189 23.6425 86.3187 23.643 86.3173 23.6441C86.3158 23.6453 86.315 23.6455 86.3161 23.6451C86.3182 23.6442 86.3345 23.6376 86.3745 23.6376L86.3743 23.2368L86.3741 22.8361C86.1124 22.8362 85.8565 22.9276 85.681 23.1572C85.521 23.3666 85.4736 23.6333 85.4736 23.8911H85.8743ZM86.3743 23.2368V23.6376C86.405 23.6376 86.4178 23.6433 86.4379 23.6648C86.4697 23.6987 86.5203 23.7798 86.5627 23.9493L86.9515 23.8521L87.3402 23.7548C87.2801 23.5142 87.1831 23.2876 87.0225 23.1164C86.8502 22.9329 86.6257 22.8361 86.3743 22.8361V23.2368ZM86.9515 23.8521L86.5617 23.9454C87.0001 25.7764 87.5452 27.1089 88.2351 27.8563L88.5296 27.5845L88.8241 27.3127C88.2829 26.7264 87.7748 25.5698 87.3412 23.7587L86.9515 23.8521ZM88.5296 27.5845L88.2408 27.8623C88.9547 28.6046 89.8271 28.9851 90.8372 28.9852L90.8372 28.5845L90.8372 28.1837C90.0526 28.1837 89.3866 27.8974 88.8184 27.3067L88.5296 27.5845ZM90.8372 28.5845V28.9852C91.6979 28.9852 92.424 28.6518 92.9872 27.9997L92.6839 27.7378L92.3806 27.4759C91.9691 27.9523 91.4641 28.1837 90.8372 28.1837V28.5845ZM92.6839 27.7378L92.9929 27.993C93.557 27.3102 93.8161 26.4014 93.8161 25.314H93.4153H93.0146C93.0146 26.2784 92.7855 26.9856 92.3749 27.4826L92.6839 27.7378ZM93.4153 25.314L93.8161 25.3139C93.816 24.2096 93.5103 23.217 92.8955 22.3506L92.5687 22.5825L92.2419 22.8145C92.7554 23.5381 93.0145 24.3667 93.0146 25.314L93.4153 25.314ZM92.5687 22.5825L92.8955 22.3506C92.2935 21.5024 91.3032 20.5996 89.9543 19.6398L89.722 19.9663L89.4896 20.2928C90.8079 21.2308 91.7153 22.0725 92.2419 22.8145L92.5687 22.5825ZM89.722 19.9663L89.9458 19.6339C88.6359 18.7522 87.7054 17.8882 87.1287 17.0473L86.7982 17.2739L86.4677 17.5006C87.1221 18.4548 88.141 19.3853 89.4982 20.2988L89.722 19.9663ZM86.7982 17.2739L87.1316 17.0516C86.5585 16.192 86.2751 15.2684 86.2751 14.2729L85.8743 14.2729L85.4736 14.273C85.4736 15.4318 85.8068 16.5093 86.4647 17.4962L86.7982 17.2739ZM85.8743 14.2729H86.2751C86.2751 12.9171 86.7452 11.8501 87.6773 11.0345L87.4134 10.7329L87.1495 10.4313C86.0297 11.4111 85.4736 12.7049 85.4736 14.2729H85.8743ZM87.4134 10.7329L87.6773 11.0345C88.6136 10.2153 89.8714 9.78796 91.4915 9.78796V9.38721V8.98645C89.7263 8.98646 88.265 9.45531 87.1495 10.4313L87.4134 10.7329ZM102.942 9.38721L102.942 9.78796C104.132 9.788 104.957 10.1309 105.494 10.7546C106.041 11.3897 106.35 12.3846 106.35 13.811L106.75 13.811L107.151 13.811C107.151 12.288 106.825 11.0711 106.102 10.2316C105.369 9.38075 104.29 8.9865 102.942 8.98645L102.942 9.38721ZM106.75 13.811H106.35V25.5835H106.75H107.151V13.811H106.75ZM106.75 25.5835H106.35C106.35 26.1425 106.417 26.6215 106.594 26.9745C106.685 27.1568 106.811 27.3175 106.982 27.4319C107.156 27.5479 107.353 27.6004 107.558 27.6005L107.558 27.1997L107.558 26.799C107.494 26.7989 107.455 26.784 107.427 26.7652C107.396 26.7448 107.354 26.7035 107.311 26.6163C107.218 26.4306 107.151 26.1016 107.151 25.5835H106.75ZM107.558 27.1997V27.6005C108.091 27.6005 108.505 27.2466 108.818 26.7631L108.482 26.5454L108.145 26.3277C107.894 26.7162 107.692 26.799 107.558 26.799V27.1997ZM108.482 26.5454L108.824 26.7544C109.167 26.193 109.305 25.3275 109.305 24.2368H108.905H108.504C108.504 25.3004 108.361 25.9745 108.14 26.3365L108.482 26.5454ZM108.905 24.2368L109.305 24.2369C109.305 24.0758 109.34 24.0293 109.341 24.0282C109.341 24.0281 109.341 24.0284 109.34 24.0289C109.339 24.0295 109.339 24.03 109.338 24.0305C109.336 24.0317 109.336 24.0317 109.338 24.0308C109.342 24.029 109.362 24.0223 109.405 24.0223L109.405 23.6216L109.404 23.2208C109.152 23.2209 108.897 23.3028 108.719 23.5227C108.553 23.7267 108.504 23.9877 108.504 24.2368L108.905 24.2368ZM109.405 23.6216V24.0223C109.434 24.0223 109.441 24.0275 109.435 24.0248C109.428 24.0212 109.423 24.0156 109.424 24.0164C109.431 24.0272 109.466 24.0929 109.466 24.2759H109.867H110.267C110.267 24.0228 110.225 23.7614 110.078 23.5541C109.914 23.3213 109.666 23.2208 109.405 23.2208V23.6216ZM109.867 24.2759L109.466 24.2759C109.466 26.1178 109.135 27.3661 108.552 28.106L108.867 28.354L109.181 28.602C109.932 27.6492 110.267 26.1782 110.267 24.2759L109.867 24.2759ZM108.867 28.354L108.551 28.1073C107.963 28.8591 107.338 29.1837 106.673 29.1837V29.5845V29.9852C107.649 29.9852 108.487 29.4902 109.182 28.6007L108.867 28.354ZM106.673 29.5845L106.673 29.1837C106.182 29.1837 105.816 28.9987 105.534 28.6163L105.211 28.854L104.889 29.0918C105.325 29.6836 105.933 29.9852 106.673 29.9852L106.673 29.5845ZM105.211 28.854L105.54 28.6242C105.217 28.1639 104.994 27.6159 104.875 26.9724L104.481 27.0454L104.087 27.1184C104.224 27.8599 104.487 28.5181 104.883 29.0838L105.211 28.854ZM104.481 27.0454L104.88 27.0055C104.862 26.8319 104.809 26.6404 104.672 26.4885C104.524 26.3242 104.327 26.2599 104.134 26.2599V26.6606V27.0614C104.144 27.0614 104.138 27.0629 104.122 27.0568C104.115 27.0538 104.107 27.0495 104.098 27.0436C104.09 27.0377 104.083 27.0313 104.077 27.0252C104.066 27.0129 104.065 27.0065 104.068 27.0153C104.072 27.0249 104.078 27.0466 104.082 27.0853L104.481 27.0454ZM104.134 26.6606L104.191 26.2639C103.774 26.2045 103.467 26.4922 103.268 26.7775L103.596 27.0073L103.924 27.2371C103.997 27.1332 104.052 27.0847 104.082 27.065C104.106 27.0496 104.1 27.0606 104.077 27.0574L104.134 26.6606ZM103.596 27.0073L103.272 26.7716C102.675 27.5925 102.077 28.1959 101.485 28.5988L101.71 28.9302L101.936 29.2616C102.626 28.7924 103.286 28.1148 103.92 27.243L103.596 27.0073ZM101.71 28.9302L101.485 28.5988C100.924 28.9804 100.212 29.1837 99.3255 29.1837L99.3255 29.5845L99.3255 29.9852C100.337 29.9852 101.215 29.7519 101.936 29.2616L101.71 28.9302ZM99.3255 29.5845V29.1837C98.3382 29.1837 97.5567 28.8818 96.9482 28.2958L96.6702 28.5845L96.3923 28.8731C97.1688 29.6209 98.1583 29.9852 99.3255 29.9852V29.5845ZM96.6702 28.5845L96.9536 28.3011C96.348 27.6955 96.0329 26.8928 96.0329 25.853L95.6321 25.853L95.2314 25.853C95.2314 27.07 95.6076 28.0886 96.3868 28.8678L96.6702 28.5845ZM95.6321 25.853H96.0329C96.0329 24.8404 96.3485 23.8815 96.9969 22.9689L96.6702 22.7368L96.3435 22.5047C95.6072 23.5412 95.2314 24.6601 95.2314 25.853H95.6321ZM96.6702 22.7368L96.9997 22.9649C97.6581 22.0139 98.5679 21.1501 99.7385 20.378L99.5179 20.0435L99.2972 19.7089C98.0569 20.527 97.0673 21.4592 96.3407 22.5087L96.6702 22.7368ZM99.5179 20.0435L99.7385 20.378C100.91 19.6056 102.248 18.9791 103.755 18.5017L103.634 18.1196L103.513 17.7376C101.943 18.2347 100.537 18.8914 99.2972 19.7089L99.5179 20.0435ZM103.634 18.1196L103.752 18.5026C103.976 18.4335 104.181 18.3141 104.327 18.123C104.475 17.9303 104.535 17.7016 104.535 17.4665L104.134 17.4663L103.733 17.4662C103.733 17.5641 103.71 17.6108 103.691 17.6358C103.67 17.6625 103.625 17.7031 103.516 17.7366L103.634 18.1196ZM104.134 17.4663H104.535V13.9653H104.134H103.733V17.4663H104.134ZM104.134 13.9653H104.535C104.535 12.7156 104.344 11.7307 103.878 11.1087L103.557 11.3491L103.236 11.5895C103.539 11.9935 103.733 12.753 103.733 13.9653H104.134ZM103.557 11.3491L103.883 11.1162C103.423 10.4716 102.775 10.1398 101.98 10.1398L101.98 10.5405L101.98 10.9413C102.518 10.9413 102.922 11.1494 103.231 11.5821L103.557 11.3491ZM101.98 10.5405V10.1398C101.199 10.1398 100.509 10.5052 99.9143 11.1561L100.21 11.4263L100.506 11.6965C100.989 11.1675 101.478 10.9413 101.98 10.9413V10.5405ZM100.21 11.4263L99.9137 11.1567C99.3225 11.8072 98.9337 12.8617 98.699 14.2439L99.0941 14.311L99.4892 14.3781C99.716 13.042 100.072 12.1739 100.507 11.6958L100.21 11.4263ZM99.0941 14.311L98.6981 14.2492C98.5782 15.0166 98.3242 15.5182 97.9832 15.8192L98.2484 16.1196L98.5135 16.4201C99.0444 15.9516 99.3535 15.2467 99.49 14.3729L99.0941 14.311ZM98.2484 16.1196L97.9845 15.818C97.6286 16.1294 97.2947 16.257 96.9778 16.257V16.6577V17.0585C97.533 17.0585 98.0473 16.828 98.5122 16.4212L98.2484 16.1196ZM96.9778 16.6577L96.9779 16.257C96.6808 16.2569 96.5314 16.1829 96.4534 16.1049C96.3755 16.027 96.3014 15.8777 96.3014 15.5806H95.9007H95.4999C95.4999 16.0014 95.6055 16.3906 95.8867 16.6717C96.1679 16.9528 96.5571 17.0584 96.9778 17.0585L96.9778 16.6577ZM95.9007 15.5806L96.3014 15.5806C96.3015 14.9145 96.4851 14.2517 96.8649 13.587L96.5169 13.3882L96.169 13.1894C95.7282 13.9608 95.5 14.7593 95.4999 15.5805L95.9007 15.5806ZM96.5169 13.3882L96.8626 13.5909C97.2748 12.8877 97.8091 12.2546 98.4692 11.6923L98.2093 11.3872L97.9494 11.0821C97.2245 11.6996 96.631 12.4011 96.1712 13.1855L96.5169 13.3882ZM98.2093 11.3872L98.4755 11.6867C99.1376 11.0982 99.8587 10.6341 100.639 10.2924L100.479 9.92529L100.318 9.55815C99.4577 9.93465 98.6658 10.4453 97.943 11.0877L98.2093 11.3872ZM100.479 9.92529L100.639 10.2924C101.414 9.95357 102.181 9.78796 102.942 9.78796V9.38721V8.98645C102.061 8.98645 101.185 9.17886 100.318 9.55814L100.479 9.92529ZM27.0091 19.6978H27.4098C27.4098 19.4018 27.3279 19.047 26.9936 18.8714C26.6966 18.7154 26.3483 18.7891 26.0588 18.8994L26.2015 19.2739L26.3441 19.6484C26.4568 19.6055 26.5358 19.5886 26.5864 19.5846C26.6363 19.5806 26.6393 19.5906 26.6209 19.5809C26.5964 19.5681 26.588 19.5496 26.5902 19.5547C26.5955 19.5671 26.6083 19.6088 26.6083 19.6978H27.0091ZM26.2015 19.2739L26.0655 18.8969C24.4529 19.4785 23.171 20.2941 22.2441 21.3573L22.5462 21.6206L22.8483 21.884C23.6655 20.9466 24.821 20.1978 26.3374 19.6509L26.2015 19.2739ZM22.5462 21.6206L22.2436 21.3578C21.3291 22.411 20.8759 23.6868 20.8759 25.1606H21.2767H21.6774C21.6774 23.8645 22.0706 22.7795 22.8488 21.8834L22.5462 21.6206ZM21.2767 25.1606L20.8759 25.1607C20.876 26.0832 21.0446 26.8477 21.4455 27.3897C21.863 27.9542 22.4856 28.2157 23.2396 28.2157V27.8149V27.4142C22.6855 27.4142 22.3267 27.2333 22.0898 26.9131C21.8363 26.5702 21.6775 26.0077 21.6774 25.1606L21.2767 25.1606ZM23.2396 27.8149L23.2396 28.2157C24.0075 28.2156 24.7113 27.9471 25.34 27.4327L25.0862 27.1226L24.8325 26.8124C24.3328 27.2212 23.805 27.4141 23.2395 27.4142L23.2396 27.8149ZM25.0862 27.1226L25.3482 27.4258C25.9634 26.8945 26.4573 26.2027 26.8362 25.3637L26.471 25.1987L26.1058 25.0338C25.7666 25.7848 25.3375 26.376 24.8243 26.8193L25.0862 27.1226ZM26.471 25.1987L26.8362 25.3637C27.2219 24.5096 27.4098 23.554 27.4098 22.5054H27.0091H26.6083C26.6083 23.4572 26.4381 24.2978 26.1058 25.0338L26.471 25.1987ZM27.0091 22.5054H27.4098V19.6978H27.0091H26.6083V22.5054H27.0091ZM46.9818 19.6978H47.3825C47.3825 19.4018 47.3005 19.047 46.9662 18.8714C46.6693 18.7155 46.321 18.7892 46.0315 18.8994L46.1741 19.2739L46.3168 19.6484C46.4294 19.6055 46.5083 19.5886 46.559 19.5846C46.6089 19.5807 46.6119 19.5907 46.5935 19.581C46.5691 19.5682 46.5607 19.5497 46.5629 19.5548C46.5681 19.5672 46.581 19.6088 46.581 19.6978H46.9818ZM46.1741 19.2739L46.0382 18.8969C44.4256 19.4785 43.1436 20.2941 42.2168 21.3573L42.5189 21.6206L42.8209 21.884C43.6381 20.9466 44.7937 20.1978 46.3101 19.6509L46.1741 19.2739ZM42.5189 21.6206L42.2163 21.3578C41.3017 22.411 40.8486 23.6868 40.8486 25.1606H41.2493H41.6501C41.6501 23.8645 42.0432 22.7795 42.8214 21.8834L42.5189 21.6206ZM41.2493 25.1606L40.8486 25.1607C40.8486 26.083 41.017 26.8475 41.4177 27.3894C41.835 27.954 42.4573 28.2156 43.2112 28.2157L43.2112 27.8149L43.2113 27.4142C42.6574 27.4141 42.2989 27.2332 42.0622 26.913C41.8088 26.5702 41.6501 26.0076 41.6501 25.1606L41.2493 25.1606ZM43.2112 27.8149V28.2157C43.9793 28.2157 44.683 27.947 45.3117 27.4327L45.0579 27.1226L44.8042 26.8124C44.3045 27.2211 43.7767 27.4142 43.2112 27.4142V27.8149ZM45.0579 27.1226L45.3199 27.4259C45.935 26.8946 46.4298 26.203 46.8089 25.3637L46.4437 25.1987L46.0784 25.0338C45.7394 25.7846 45.3094 26.3759 44.796 26.8193L45.0579 27.1226ZM46.4437 25.1987L46.8089 25.3637C47.1946 24.5096 47.3825 23.554 47.3825 22.5054H46.9818H46.581C46.581 23.4572 46.4108 24.2978 46.0784 25.0338L46.4437 25.1987ZM46.9818 22.5054H47.3825V19.6978H46.9818H46.581V22.5054H46.9818ZM104.134 19.6978H104.535C104.535 19.4017 104.453 19.047 104.119 18.8714C103.822 18.7155 103.473 18.7892 103.184 18.8994L103.326 19.2739L103.469 19.6484C103.582 19.6056 103.661 19.5886 103.711 19.5847C103.761 19.5807 103.764 19.5907 103.746 19.581C103.721 19.5682 103.713 19.5498 103.715 19.5549C103.72 19.5672 103.733 19.6089 103.733 19.6978H104.134ZM103.326 19.2739L103.191 18.8969C101.578 19.4785 100.296 20.2941 99.3691 21.3573L99.6712 21.6206L99.9733 21.884C100.79 20.9466 101.946 20.1978 103.462 19.6509L103.326 19.2739ZM99.6712 21.6206L99.3686 21.3578C98.4541 22.411 98.0009 23.6868 98.0009 25.1606H98.4017H98.8024C98.8024 23.8645 99.1956 22.7795 99.9738 21.8834L99.6712 21.6206ZM98.4017 25.1606L98.0009 25.1607C98.001 26.083 98.1694 26.8475 98.57 27.3895C98.9873 27.9541 99.6097 28.2156 100.364 28.2157L100.364 27.8149L100.364 27.4142C99.8097 27.4141 99.4512 27.2332 99.2145 26.9131C98.9611 26.5703 98.8025 26.0077 98.8024 25.1606L98.4017 25.1606ZM100.364 27.8149V28.2157C101.132 28.2157 101.835 27.947 102.464 27.4327L102.21 27.1226L101.957 26.8124C101.457 27.2212 100.929 27.4142 100.364 27.4142V27.8149ZM102.21 27.1226L102.472 27.4259C103.087 26.8946 103.582 26.203 103.961 25.3637L103.596 25.1987L103.231 25.0338C102.892 25.7846 102.462 26.3759 101.948 26.8193L102.21 27.1226ZM103.596 25.1987L103.961 25.3637C104.347 24.5096 104.535 23.5539 104.535 22.5054H104.134H103.733C103.733 23.4571 103.563 24.2978 103.231 25.0338L103.596 25.1987ZM104.134 22.5054H104.535V19.6978H104.134H103.733V22.5054H104.134Z" fill="white"/>
</svg>
